G04 EAGLE Gerber RS-274X export*
G75*
%MOMM*%
%FSLAX34Y34*%
%LPD*%
%INTop Copper*%
%IPPOS*%
%AMOC8*
5,1,8,0,0,1.08239X$1,22.5*%
G01*
%ADD10C,0.130000*%
%ADD11C,0.152400*%
%ADD12C,1.665000*%
%ADD13R,1.665000X1.665000*%
%ADD14C,2.514600*%
%ADD15P,1.649562X8X112.500000*%
%ADD16C,1.524000*%
%ADD17C,1.016000*%


D10*
X-38100Y546100D02*
X-38100Y475800D01*
X545900Y475800D02*
X545900Y546100D01*
X545250Y495300D02*
X-37450Y495300D01*
X-12100Y498492D01*
X-12100Y492108D01*
X-37450Y495300D01*
X-12100Y496600D01*
X-12100Y494000D02*
X-37450Y495300D01*
X-12100Y497900D01*
X-12100Y492700D02*
X-37450Y495300D01*
X519900Y498492D02*
X545250Y495300D01*
X519900Y498492D02*
X519900Y492108D01*
X545250Y495300D01*
X519900Y496600D01*
X519900Y494000D02*
X545250Y495300D01*
X519900Y497900D01*
X519900Y492700D02*
X545250Y495300D01*
D11*
X228260Y501807D02*
X222841Y501807D01*
X228260Y501807D02*
X228378Y501809D01*
X228496Y501815D01*
X228614Y501824D01*
X228731Y501838D01*
X228848Y501855D01*
X228965Y501876D01*
X229080Y501901D01*
X229195Y501930D01*
X229309Y501963D01*
X229421Y501999D01*
X229532Y502039D01*
X229642Y502082D01*
X229751Y502129D01*
X229858Y502179D01*
X229963Y502234D01*
X230066Y502291D01*
X230167Y502352D01*
X230267Y502416D01*
X230364Y502483D01*
X230459Y502553D01*
X230551Y502627D01*
X230642Y502703D01*
X230729Y502783D01*
X230814Y502865D01*
X230896Y502950D01*
X230976Y503037D01*
X231052Y503128D01*
X231126Y503220D01*
X231196Y503315D01*
X231263Y503412D01*
X231327Y503512D01*
X231388Y503613D01*
X231445Y503716D01*
X231500Y503821D01*
X231550Y503928D01*
X231597Y504037D01*
X231640Y504147D01*
X231680Y504258D01*
X231716Y504370D01*
X231749Y504484D01*
X231778Y504599D01*
X231803Y504714D01*
X231824Y504831D01*
X231841Y504948D01*
X231855Y505065D01*
X231864Y505183D01*
X231870Y505301D01*
X231872Y505419D01*
X231872Y507226D01*
X231870Y507344D01*
X231864Y507462D01*
X231855Y507580D01*
X231841Y507697D01*
X231824Y507814D01*
X231803Y507931D01*
X231778Y508046D01*
X231749Y508161D01*
X231716Y508275D01*
X231680Y508387D01*
X231640Y508498D01*
X231597Y508608D01*
X231550Y508717D01*
X231500Y508824D01*
X231445Y508929D01*
X231388Y509032D01*
X231327Y509133D01*
X231263Y509233D01*
X231196Y509330D01*
X231126Y509425D01*
X231052Y509517D01*
X230976Y509608D01*
X230896Y509695D01*
X230814Y509780D01*
X230729Y509862D01*
X230642Y509942D01*
X230551Y510018D01*
X230459Y510092D01*
X230364Y510162D01*
X230267Y510229D01*
X230167Y510293D01*
X230066Y510354D01*
X229963Y510411D01*
X229858Y510466D01*
X229751Y510516D01*
X229642Y510563D01*
X229532Y510606D01*
X229421Y510646D01*
X229309Y510682D01*
X229195Y510715D01*
X229080Y510744D01*
X228965Y510769D01*
X228848Y510790D01*
X228731Y510807D01*
X228614Y510821D01*
X228496Y510830D01*
X228378Y510836D01*
X228260Y510838D01*
X222841Y510838D01*
X222841Y518063D01*
X231872Y518063D01*
X238472Y506323D02*
X238474Y506456D01*
X238480Y506588D01*
X238490Y506720D01*
X238503Y506852D01*
X238521Y506984D01*
X238542Y507114D01*
X238567Y507245D01*
X238596Y507374D01*
X238629Y507502D01*
X238665Y507630D01*
X238705Y507756D01*
X238749Y507881D01*
X238797Y508005D01*
X238848Y508127D01*
X238903Y508248D01*
X238961Y508367D01*
X239023Y508485D01*
X239088Y508600D01*
X239157Y508714D01*
X239228Y508825D01*
X239304Y508934D01*
X239382Y509041D01*
X239463Y509146D01*
X239548Y509248D01*
X239635Y509348D01*
X239725Y509445D01*
X239818Y509540D01*
X239914Y509631D01*
X240012Y509720D01*
X240113Y509806D01*
X240217Y509889D01*
X240323Y509969D01*
X240431Y510045D01*
X240541Y510119D01*
X240654Y510189D01*
X240768Y510256D01*
X240885Y510319D01*
X241003Y510379D01*
X241123Y510436D01*
X241245Y510489D01*
X241368Y510538D01*
X241492Y510584D01*
X241618Y510626D01*
X241745Y510664D01*
X241873Y510699D01*
X242002Y510730D01*
X242131Y510757D01*
X242262Y510780D01*
X242393Y510800D01*
X242525Y510815D01*
X242657Y510827D01*
X242789Y510835D01*
X242922Y510839D01*
X243054Y510839D01*
X243187Y510835D01*
X243319Y510827D01*
X243451Y510815D01*
X243583Y510800D01*
X243714Y510780D01*
X243845Y510757D01*
X243974Y510730D01*
X244103Y510699D01*
X244231Y510664D01*
X244358Y510626D01*
X244484Y510584D01*
X244608Y510538D01*
X244731Y510489D01*
X244853Y510436D01*
X244973Y510379D01*
X245091Y510319D01*
X245208Y510256D01*
X245322Y510189D01*
X245435Y510119D01*
X245545Y510045D01*
X245653Y509969D01*
X245759Y509889D01*
X245863Y509806D01*
X245964Y509720D01*
X246062Y509631D01*
X246158Y509540D01*
X246251Y509445D01*
X246341Y509348D01*
X246428Y509248D01*
X246513Y509146D01*
X246594Y509041D01*
X246672Y508934D01*
X246748Y508825D01*
X246819Y508714D01*
X246888Y508600D01*
X246953Y508485D01*
X247015Y508367D01*
X247073Y508248D01*
X247128Y508127D01*
X247179Y508005D01*
X247227Y507881D01*
X247271Y507756D01*
X247311Y507630D01*
X247347Y507502D01*
X247380Y507374D01*
X247409Y507245D01*
X247434Y507114D01*
X247455Y506984D01*
X247473Y506852D01*
X247486Y506720D01*
X247496Y506588D01*
X247502Y506456D01*
X247504Y506323D01*
X247502Y506190D01*
X247496Y506058D01*
X247486Y505926D01*
X247473Y505794D01*
X247455Y505662D01*
X247434Y505532D01*
X247409Y505401D01*
X247380Y505272D01*
X247347Y505144D01*
X247311Y505016D01*
X247271Y504890D01*
X247227Y504765D01*
X247179Y504641D01*
X247128Y504519D01*
X247073Y504398D01*
X247015Y504279D01*
X246953Y504161D01*
X246888Y504046D01*
X246819Y503932D01*
X246748Y503821D01*
X246672Y503712D01*
X246594Y503605D01*
X246513Y503500D01*
X246428Y503398D01*
X246341Y503298D01*
X246251Y503201D01*
X246158Y503106D01*
X246062Y503015D01*
X245964Y502926D01*
X245863Y502840D01*
X245759Y502757D01*
X245653Y502677D01*
X245545Y502601D01*
X245435Y502527D01*
X245322Y502457D01*
X245208Y502390D01*
X245091Y502327D01*
X244973Y502267D01*
X244853Y502210D01*
X244731Y502157D01*
X244608Y502108D01*
X244484Y502062D01*
X244358Y502020D01*
X244231Y501982D01*
X244103Y501947D01*
X243974Y501916D01*
X243845Y501889D01*
X243714Y501866D01*
X243583Y501846D01*
X243451Y501831D01*
X243319Y501819D01*
X243187Y501811D01*
X243054Y501807D01*
X242922Y501807D01*
X242789Y501811D01*
X242657Y501819D01*
X242525Y501831D01*
X242393Y501846D01*
X242262Y501866D01*
X242131Y501889D01*
X242002Y501916D01*
X241873Y501947D01*
X241745Y501982D01*
X241618Y502020D01*
X241492Y502062D01*
X241368Y502108D01*
X241245Y502157D01*
X241123Y502210D01*
X241003Y502267D01*
X240885Y502327D01*
X240768Y502390D01*
X240654Y502457D01*
X240541Y502527D01*
X240431Y502601D01*
X240323Y502677D01*
X240217Y502757D01*
X240113Y502840D01*
X240012Y502926D01*
X239914Y503015D01*
X239818Y503106D01*
X239725Y503201D01*
X239635Y503298D01*
X239548Y503398D01*
X239463Y503500D01*
X239382Y503605D01*
X239304Y503712D01*
X239228Y503821D01*
X239157Y503932D01*
X239088Y504046D01*
X239023Y504161D01*
X238961Y504279D01*
X238903Y504398D01*
X238848Y504519D01*
X238797Y504641D01*
X238749Y504765D01*
X238705Y504890D01*
X238665Y505016D01*
X238629Y505144D01*
X238596Y505272D01*
X238567Y505401D01*
X238542Y505532D01*
X238521Y505662D01*
X238503Y505794D01*
X238490Y505926D01*
X238480Y506058D01*
X238474Y506190D01*
X238472Y506323D01*
X239376Y514451D02*
X239378Y514570D01*
X239384Y514690D01*
X239394Y514809D01*
X239408Y514927D01*
X239425Y515046D01*
X239447Y515163D01*
X239472Y515280D01*
X239502Y515395D01*
X239535Y515510D01*
X239572Y515624D01*
X239612Y515736D01*
X239657Y515847D01*
X239705Y515956D01*
X239756Y516064D01*
X239811Y516170D01*
X239870Y516274D01*
X239932Y516376D01*
X239997Y516476D01*
X240066Y516574D01*
X240138Y516670D01*
X240213Y516763D01*
X240290Y516853D01*
X240371Y516941D01*
X240455Y517026D01*
X240542Y517108D01*
X240631Y517188D01*
X240723Y517264D01*
X240817Y517338D01*
X240914Y517408D01*
X241012Y517475D01*
X241113Y517539D01*
X241217Y517599D01*
X241322Y517656D01*
X241429Y517709D01*
X241537Y517759D01*
X241647Y517805D01*
X241759Y517847D01*
X241872Y517886D01*
X241986Y517921D01*
X242101Y517952D01*
X242218Y517980D01*
X242335Y518003D01*
X242452Y518023D01*
X242571Y518039D01*
X242690Y518051D01*
X242809Y518059D01*
X242928Y518063D01*
X243048Y518063D01*
X243167Y518059D01*
X243286Y518051D01*
X243405Y518039D01*
X243524Y518023D01*
X243641Y518003D01*
X243758Y517980D01*
X243875Y517952D01*
X243990Y517921D01*
X244104Y517886D01*
X244217Y517847D01*
X244329Y517805D01*
X244439Y517759D01*
X244547Y517709D01*
X244654Y517656D01*
X244759Y517599D01*
X244863Y517539D01*
X244964Y517475D01*
X245062Y517408D01*
X245159Y517338D01*
X245253Y517264D01*
X245345Y517188D01*
X245434Y517108D01*
X245521Y517026D01*
X245605Y516941D01*
X245686Y516853D01*
X245763Y516763D01*
X245838Y516670D01*
X245910Y516574D01*
X245979Y516476D01*
X246044Y516376D01*
X246106Y516274D01*
X246165Y516170D01*
X246220Y516064D01*
X246271Y515956D01*
X246319Y515847D01*
X246364Y515736D01*
X246404Y515624D01*
X246441Y515510D01*
X246474Y515395D01*
X246504Y515280D01*
X246529Y515163D01*
X246551Y515046D01*
X246568Y514927D01*
X246582Y514809D01*
X246592Y514690D01*
X246598Y514570D01*
X246600Y514451D01*
X246598Y514332D01*
X246592Y514212D01*
X246582Y514093D01*
X246568Y513975D01*
X246551Y513856D01*
X246529Y513739D01*
X246504Y513622D01*
X246474Y513507D01*
X246441Y513392D01*
X246404Y513278D01*
X246364Y513166D01*
X246319Y513055D01*
X246271Y512946D01*
X246220Y512838D01*
X246165Y512732D01*
X246106Y512628D01*
X246044Y512526D01*
X245979Y512426D01*
X245910Y512328D01*
X245838Y512232D01*
X245763Y512139D01*
X245686Y512049D01*
X245605Y511961D01*
X245521Y511876D01*
X245434Y511794D01*
X245345Y511714D01*
X245253Y511638D01*
X245159Y511564D01*
X245062Y511494D01*
X244964Y511427D01*
X244863Y511363D01*
X244759Y511303D01*
X244654Y511246D01*
X244547Y511193D01*
X244439Y511143D01*
X244329Y511097D01*
X244217Y511055D01*
X244104Y511016D01*
X243990Y510981D01*
X243875Y510950D01*
X243758Y510922D01*
X243641Y510899D01*
X243524Y510879D01*
X243405Y510863D01*
X243286Y510851D01*
X243167Y510843D01*
X243048Y510839D01*
X242928Y510839D01*
X242809Y510843D01*
X242690Y510851D01*
X242571Y510863D01*
X242452Y510879D01*
X242335Y510899D01*
X242218Y510922D01*
X242101Y510950D01*
X241986Y510981D01*
X241872Y511016D01*
X241759Y511055D01*
X241647Y511097D01*
X241537Y511143D01*
X241429Y511193D01*
X241322Y511246D01*
X241217Y511303D01*
X241113Y511363D01*
X241012Y511427D01*
X240914Y511494D01*
X240817Y511564D01*
X240723Y511638D01*
X240631Y511714D01*
X240542Y511794D01*
X240455Y511876D01*
X240371Y511961D01*
X240290Y512049D01*
X240213Y512139D01*
X240138Y512232D01*
X240066Y512328D01*
X239997Y512426D01*
X239932Y512526D01*
X239870Y512628D01*
X239811Y512732D01*
X239756Y512838D01*
X239705Y512946D01*
X239657Y513055D01*
X239612Y513166D01*
X239572Y513278D01*
X239535Y513392D01*
X239502Y513507D01*
X239472Y513622D01*
X239447Y513739D01*
X239425Y513856D01*
X239408Y513975D01*
X239394Y514093D01*
X239384Y514212D01*
X239378Y514332D01*
X239376Y514451D01*
X253478Y502710D02*
X253478Y501807D01*
X253478Y502710D02*
X254381Y502710D01*
X254381Y501807D01*
X253478Y501807D01*
X260356Y505419D02*
X263969Y518063D01*
X260356Y505419D02*
X269387Y505419D01*
X266678Y509032D02*
X266678Y501807D01*
X275988Y509935D02*
X275992Y510255D01*
X276003Y510574D01*
X276022Y510894D01*
X276049Y511212D01*
X276083Y511530D01*
X276125Y511847D01*
X276175Y512163D01*
X276232Y512478D01*
X276296Y512791D01*
X276368Y513103D01*
X276447Y513413D01*
X276534Y513720D01*
X276628Y514026D01*
X276729Y514329D01*
X276838Y514630D01*
X276953Y514928D01*
X277076Y515224D01*
X277206Y515516D01*
X277343Y515805D01*
X277342Y515806D02*
X277381Y515914D01*
X277424Y516021D01*
X277470Y516126D01*
X277521Y516230D01*
X277574Y516332D01*
X277631Y516432D01*
X277692Y516530D01*
X277756Y516625D01*
X277823Y516719D01*
X277894Y516810D01*
X277967Y516899D01*
X278044Y516985D01*
X278123Y517068D01*
X278205Y517149D01*
X278290Y517227D01*
X278378Y517301D01*
X278468Y517373D01*
X278560Y517441D01*
X278655Y517507D01*
X278752Y517569D01*
X278851Y517627D01*
X278953Y517683D01*
X279055Y517734D01*
X279160Y517782D01*
X279266Y517827D01*
X279374Y517868D01*
X279483Y517905D01*
X279593Y517938D01*
X279705Y517967D01*
X279817Y517993D01*
X279930Y518015D01*
X280044Y518032D01*
X280158Y518046D01*
X280273Y518056D01*
X280388Y518062D01*
X280503Y518064D01*
X280503Y518063D02*
X280618Y518061D01*
X280733Y518055D01*
X280848Y518045D01*
X280962Y518031D01*
X281076Y518014D01*
X281189Y517992D01*
X281301Y517966D01*
X281413Y517937D01*
X281523Y517904D01*
X281632Y517867D01*
X281740Y517826D01*
X281846Y517781D01*
X281951Y517733D01*
X282053Y517682D01*
X282154Y517626D01*
X282254Y517568D01*
X282351Y517506D01*
X282445Y517441D01*
X282538Y517372D01*
X282628Y517300D01*
X282716Y517226D01*
X282801Y517148D01*
X282883Y517067D01*
X282962Y516984D01*
X283039Y516898D01*
X283112Y516809D01*
X283183Y516718D01*
X283250Y516624D01*
X283314Y516529D01*
X283375Y516431D01*
X283432Y516331D01*
X283485Y516229D01*
X283536Y516125D01*
X283582Y516020D01*
X283625Y515913D01*
X283664Y515805D01*
X283663Y515805D02*
X283800Y515516D01*
X283930Y515224D01*
X284053Y514928D01*
X284168Y514630D01*
X284277Y514329D01*
X284378Y514026D01*
X284472Y513720D01*
X284559Y513413D01*
X284638Y513103D01*
X284710Y512791D01*
X284774Y512478D01*
X284831Y512163D01*
X284881Y511847D01*
X284923Y511530D01*
X284957Y511212D01*
X284984Y510894D01*
X285003Y510574D01*
X285014Y510255D01*
X285018Y509935D01*
X275988Y509935D02*
X275992Y509615D01*
X276003Y509296D01*
X276022Y508976D01*
X276049Y508658D01*
X276083Y508340D01*
X276125Y508023D01*
X276175Y507707D01*
X276232Y507392D01*
X276296Y507079D01*
X276368Y506767D01*
X276447Y506457D01*
X276534Y506150D01*
X276628Y505844D01*
X276729Y505541D01*
X276838Y505240D01*
X276953Y504942D01*
X277076Y504646D01*
X277206Y504354D01*
X277343Y504065D01*
X277342Y504065D02*
X277381Y503957D01*
X277424Y503850D01*
X277470Y503745D01*
X277521Y503641D01*
X277574Y503539D01*
X277631Y503439D01*
X277692Y503341D01*
X277756Y503246D01*
X277823Y503152D01*
X277894Y503061D01*
X277967Y502972D01*
X278044Y502886D01*
X278123Y502803D01*
X278205Y502722D01*
X278290Y502644D01*
X278378Y502570D01*
X278468Y502498D01*
X278561Y502429D01*
X278655Y502364D01*
X278752Y502302D01*
X278852Y502244D01*
X278953Y502188D01*
X279055Y502137D01*
X279160Y502089D01*
X279266Y502044D01*
X279374Y502003D01*
X279483Y501966D01*
X279593Y501933D01*
X279705Y501904D01*
X279817Y501878D01*
X279930Y501856D01*
X280044Y501839D01*
X280158Y501825D01*
X280273Y501815D01*
X280388Y501809D01*
X280503Y501807D01*
X283663Y504065D02*
X283800Y504354D01*
X283930Y504646D01*
X284053Y504942D01*
X284168Y505240D01*
X284277Y505541D01*
X284378Y505844D01*
X284472Y506150D01*
X284559Y506457D01*
X284638Y506767D01*
X284710Y507079D01*
X284774Y507392D01*
X284831Y507707D01*
X284881Y508023D01*
X284923Y508340D01*
X284957Y508658D01*
X284984Y508976D01*
X285003Y509296D01*
X285014Y509615D01*
X285018Y509935D01*
X283664Y504065D02*
X283625Y503957D01*
X283582Y503850D01*
X283536Y503745D01*
X283485Y503641D01*
X283432Y503539D01*
X283375Y503439D01*
X283314Y503341D01*
X283250Y503246D01*
X283183Y503152D01*
X283112Y503061D01*
X283039Y502972D01*
X282962Y502886D01*
X282883Y502803D01*
X282801Y502722D01*
X282716Y502644D01*
X282628Y502570D01*
X282538Y502498D01*
X282445Y502429D01*
X282351Y502364D01*
X282254Y502302D01*
X282154Y502244D01*
X282053Y502188D01*
X281950Y502137D01*
X281846Y502089D01*
X281740Y502044D01*
X281632Y502003D01*
X281523Y501966D01*
X281413Y501933D01*
X281301Y501904D01*
X281189Y501878D01*
X281076Y501856D01*
X280962Y501839D01*
X280848Y501825D01*
X280733Y501815D01*
X280618Y501809D01*
X280503Y501807D01*
X276891Y505419D02*
X284115Y514451D01*
D10*
X-38100Y1000000D02*
X-108400Y1000000D01*
X-108400Y546100D02*
X-38100Y546100D01*
X-88900Y546750D02*
X-88900Y999350D01*
X-92092Y974000D01*
X-85708Y974000D01*
X-88900Y999350D01*
X-90200Y974000D01*
X-87600Y974000D02*
X-88900Y999350D01*
X-91500Y974000D01*
X-86300Y974000D02*
X-88900Y999350D01*
X-92092Y572100D02*
X-88900Y546750D01*
X-92092Y572100D02*
X-85708Y572100D01*
X-88900Y546750D01*
X-90200Y572100D01*
X-87600Y572100D02*
X-88900Y546750D01*
X-91500Y572100D01*
X-86300Y572100D02*
X-88900Y546750D01*
D11*
X-99019Y741991D02*
X-111663Y745604D01*
X-99019Y741991D02*
X-99019Y751022D01*
X-102632Y748313D02*
X-95407Y748313D01*
X-95407Y757623D02*
X-95407Y763041D01*
X-95409Y763159D01*
X-95415Y763277D01*
X-95424Y763395D01*
X-95438Y763512D01*
X-95455Y763629D01*
X-95476Y763746D01*
X-95501Y763861D01*
X-95530Y763976D01*
X-95563Y764090D01*
X-95599Y764202D01*
X-95639Y764313D01*
X-95682Y764423D01*
X-95729Y764532D01*
X-95779Y764639D01*
X-95834Y764744D01*
X-95891Y764847D01*
X-95952Y764948D01*
X-96016Y765048D01*
X-96083Y765145D01*
X-96153Y765240D01*
X-96227Y765332D01*
X-96303Y765423D01*
X-96383Y765510D01*
X-96465Y765595D01*
X-96550Y765677D01*
X-96637Y765757D01*
X-96728Y765833D01*
X-96820Y765907D01*
X-96915Y765977D01*
X-97012Y766044D01*
X-97112Y766108D01*
X-97213Y766169D01*
X-97316Y766226D01*
X-97421Y766281D01*
X-97528Y766331D01*
X-97637Y766378D01*
X-97747Y766421D01*
X-97858Y766461D01*
X-97970Y766497D01*
X-98084Y766530D01*
X-98199Y766559D01*
X-98314Y766584D01*
X-98431Y766605D01*
X-98548Y766622D01*
X-98665Y766636D01*
X-98783Y766645D01*
X-98901Y766651D01*
X-99019Y766653D01*
X-99019Y766654D02*
X-100826Y766654D01*
X-100826Y766653D02*
X-100944Y766651D01*
X-101062Y766645D01*
X-101180Y766636D01*
X-101297Y766622D01*
X-101414Y766605D01*
X-101531Y766584D01*
X-101646Y766559D01*
X-101761Y766530D01*
X-101875Y766497D01*
X-101987Y766461D01*
X-102098Y766421D01*
X-102208Y766378D01*
X-102317Y766331D01*
X-102424Y766281D01*
X-102529Y766226D01*
X-102632Y766169D01*
X-102733Y766108D01*
X-102833Y766044D01*
X-102930Y765977D01*
X-103025Y765907D01*
X-103117Y765833D01*
X-103208Y765757D01*
X-103295Y765677D01*
X-103380Y765595D01*
X-103462Y765510D01*
X-103542Y765423D01*
X-103618Y765332D01*
X-103692Y765240D01*
X-103762Y765145D01*
X-103829Y765048D01*
X-103893Y764948D01*
X-103954Y764847D01*
X-104011Y764744D01*
X-104066Y764639D01*
X-104116Y764532D01*
X-104163Y764423D01*
X-104206Y764313D01*
X-104246Y764202D01*
X-104282Y764090D01*
X-104315Y763976D01*
X-104344Y763861D01*
X-104369Y763746D01*
X-104390Y763629D01*
X-104407Y763512D01*
X-104421Y763395D01*
X-104430Y763277D01*
X-104436Y763159D01*
X-104438Y763041D01*
X-104438Y757623D01*
X-111663Y757623D01*
X-111663Y766654D01*
X-96310Y772628D02*
X-95407Y772628D01*
X-96310Y772628D02*
X-96310Y773531D01*
X-95407Y773531D01*
X-95407Y772628D01*
X-95407Y779506D02*
X-95407Y784022D01*
X-95409Y784155D01*
X-95415Y784287D01*
X-95425Y784419D01*
X-95438Y784551D01*
X-95456Y784683D01*
X-95477Y784813D01*
X-95502Y784944D01*
X-95531Y785073D01*
X-95564Y785201D01*
X-95600Y785329D01*
X-95640Y785455D01*
X-95684Y785580D01*
X-95732Y785704D01*
X-95783Y785826D01*
X-95838Y785947D01*
X-95896Y786066D01*
X-95958Y786184D01*
X-96023Y786299D01*
X-96092Y786413D01*
X-96163Y786524D01*
X-96239Y786633D01*
X-96317Y786740D01*
X-96398Y786845D01*
X-96483Y786947D01*
X-96570Y787047D01*
X-96660Y787144D01*
X-96753Y787239D01*
X-96849Y787330D01*
X-96947Y787419D01*
X-97048Y787505D01*
X-97152Y787588D01*
X-97258Y787668D01*
X-97366Y787744D01*
X-97476Y787818D01*
X-97589Y787888D01*
X-97703Y787955D01*
X-97820Y788018D01*
X-97938Y788078D01*
X-98058Y788135D01*
X-98180Y788188D01*
X-98303Y788237D01*
X-98427Y788283D01*
X-98553Y788325D01*
X-98680Y788363D01*
X-98808Y788398D01*
X-98937Y788429D01*
X-99066Y788456D01*
X-99197Y788479D01*
X-99328Y788499D01*
X-99460Y788514D01*
X-99592Y788526D01*
X-99724Y788534D01*
X-99857Y788538D01*
X-99989Y788538D01*
X-100122Y788534D01*
X-100254Y788526D01*
X-100386Y788514D01*
X-100518Y788499D01*
X-100649Y788479D01*
X-100780Y788456D01*
X-100909Y788429D01*
X-101038Y788398D01*
X-101166Y788363D01*
X-101293Y788325D01*
X-101419Y788283D01*
X-101543Y788237D01*
X-101666Y788188D01*
X-101788Y788135D01*
X-101908Y788078D01*
X-102026Y788018D01*
X-102143Y787955D01*
X-102257Y787888D01*
X-102370Y787818D01*
X-102480Y787744D01*
X-102588Y787668D01*
X-102694Y787588D01*
X-102798Y787505D01*
X-102899Y787419D01*
X-102997Y787330D01*
X-103093Y787239D01*
X-103186Y787144D01*
X-103276Y787047D01*
X-103363Y786947D01*
X-103448Y786845D01*
X-103529Y786740D01*
X-103607Y786633D01*
X-103683Y786524D01*
X-103754Y786413D01*
X-103823Y786299D01*
X-103888Y786184D01*
X-103950Y786066D01*
X-104008Y785947D01*
X-104063Y785826D01*
X-104114Y785704D01*
X-104162Y785580D01*
X-104206Y785455D01*
X-104246Y785329D01*
X-104282Y785201D01*
X-104315Y785073D01*
X-104344Y784944D01*
X-104369Y784813D01*
X-104390Y784683D01*
X-104408Y784551D01*
X-104421Y784419D01*
X-104431Y784287D01*
X-104437Y784155D01*
X-104439Y784022D01*
X-111663Y784925D02*
X-111663Y779506D01*
X-111663Y784925D02*
X-111661Y785044D01*
X-111655Y785164D01*
X-111645Y785283D01*
X-111631Y785401D01*
X-111614Y785520D01*
X-111592Y785637D01*
X-111567Y785754D01*
X-111537Y785869D01*
X-111504Y785984D01*
X-111467Y786098D01*
X-111427Y786210D01*
X-111382Y786321D01*
X-111334Y786430D01*
X-111283Y786538D01*
X-111228Y786644D01*
X-111169Y786748D01*
X-111107Y786850D01*
X-111042Y786950D01*
X-110973Y787048D01*
X-110901Y787144D01*
X-110826Y787237D01*
X-110749Y787327D01*
X-110668Y787415D01*
X-110584Y787500D01*
X-110497Y787582D01*
X-110408Y787662D01*
X-110316Y787738D01*
X-110222Y787812D01*
X-110125Y787882D01*
X-110027Y787949D01*
X-109926Y788013D01*
X-109822Y788073D01*
X-109717Y788130D01*
X-109610Y788183D01*
X-109502Y788233D01*
X-109392Y788279D01*
X-109280Y788321D01*
X-109167Y788360D01*
X-109053Y788395D01*
X-108938Y788426D01*
X-108821Y788454D01*
X-108704Y788477D01*
X-108587Y788497D01*
X-108468Y788513D01*
X-108349Y788525D01*
X-108230Y788533D01*
X-108111Y788537D01*
X-107991Y788537D01*
X-107872Y788533D01*
X-107753Y788525D01*
X-107634Y788513D01*
X-107515Y788497D01*
X-107398Y788477D01*
X-107281Y788454D01*
X-107164Y788426D01*
X-107049Y788395D01*
X-106935Y788360D01*
X-106822Y788321D01*
X-106710Y788279D01*
X-106600Y788233D01*
X-106492Y788183D01*
X-106385Y788130D01*
X-106280Y788073D01*
X-106176Y788013D01*
X-106075Y787949D01*
X-105977Y787882D01*
X-105880Y787812D01*
X-105786Y787738D01*
X-105694Y787662D01*
X-105605Y787582D01*
X-105518Y787500D01*
X-105434Y787415D01*
X-105353Y787327D01*
X-105276Y787237D01*
X-105201Y787144D01*
X-105129Y787048D01*
X-105060Y786950D01*
X-104995Y786850D01*
X-104933Y786748D01*
X-104874Y786644D01*
X-104819Y786538D01*
X-104768Y786430D01*
X-104720Y786321D01*
X-104675Y786210D01*
X-104635Y786098D01*
X-104598Y785984D01*
X-104565Y785869D01*
X-104535Y785754D01*
X-104510Y785637D01*
X-104488Y785520D01*
X-104471Y785401D01*
X-104457Y785283D01*
X-104447Y785164D01*
X-104441Y785044D01*
X-104439Y784925D01*
X-104438Y784925D02*
X-104438Y781312D01*
X-102632Y798750D02*
X-102632Y804169D01*
X-102632Y798750D02*
X-102634Y798632D01*
X-102640Y798514D01*
X-102649Y798396D01*
X-102663Y798279D01*
X-102680Y798162D01*
X-102701Y798045D01*
X-102726Y797930D01*
X-102755Y797815D01*
X-102788Y797701D01*
X-102824Y797589D01*
X-102864Y797478D01*
X-102907Y797368D01*
X-102954Y797259D01*
X-103004Y797152D01*
X-103059Y797047D01*
X-103116Y796944D01*
X-103177Y796843D01*
X-103241Y796743D01*
X-103308Y796646D01*
X-103378Y796551D01*
X-103452Y796459D01*
X-103528Y796368D01*
X-103608Y796281D01*
X-103690Y796196D01*
X-103775Y796114D01*
X-103862Y796034D01*
X-103953Y795958D01*
X-104045Y795884D01*
X-104140Y795814D01*
X-104237Y795747D01*
X-104337Y795683D01*
X-104438Y795622D01*
X-104541Y795565D01*
X-104646Y795510D01*
X-104753Y795460D01*
X-104862Y795413D01*
X-104972Y795370D01*
X-105083Y795330D01*
X-105195Y795294D01*
X-105309Y795261D01*
X-105424Y795232D01*
X-105539Y795207D01*
X-105656Y795186D01*
X-105773Y795169D01*
X-105890Y795155D01*
X-106008Y795146D01*
X-106126Y795140D01*
X-106244Y795138D01*
X-106244Y795137D02*
X-107147Y795137D01*
X-107280Y795139D01*
X-107412Y795145D01*
X-107544Y795155D01*
X-107676Y795168D01*
X-107808Y795186D01*
X-107938Y795207D01*
X-108069Y795232D01*
X-108198Y795261D01*
X-108326Y795294D01*
X-108454Y795330D01*
X-108580Y795370D01*
X-108705Y795414D01*
X-108829Y795462D01*
X-108951Y795513D01*
X-109072Y795568D01*
X-109191Y795626D01*
X-109309Y795688D01*
X-109424Y795753D01*
X-109538Y795822D01*
X-109649Y795893D01*
X-109758Y795969D01*
X-109865Y796047D01*
X-109970Y796128D01*
X-110072Y796213D01*
X-110172Y796300D01*
X-110269Y796390D01*
X-110364Y796483D01*
X-110455Y796579D01*
X-110544Y796677D01*
X-110630Y796778D01*
X-110713Y796882D01*
X-110793Y796988D01*
X-110869Y797096D01*
X-110943Y797206D01*
X-111013Y797319D01*
X-111080Y797433D01*
X-111143Y797550D01*
X-111203Y797668D01*
X-111260Y797788D01*
X-111313Y797910D01*
X-111362Y798033D01*
X-111408Y798157D01*
X-111450Y798283D01*
X-111488Y798410D01*
X-111523Y798538D01*
X-111554Y798667D01*
X-111581Y798796D01*
X-111604Y798927D01*
X-111624Y799058D01*
X-111639Y799190D01*
X-111651Y799322D01*
X-111659Y799454D01*
X-111663Y799587D01*
X-111663Y799719D01*
X-111659Y799852D01*
X-111651Y799984D01*
X-111639Y800116D01*
X-111624Y800248D01*
X-111604Y800379D01*
X-111581Y800510D01*
X-111554Y800639D01*
X-111523Y800768D01*
X-111488Y800896D01*
X-111450Y801023D01*
X-111408Y801149D01*
X-111362Y801273D01*
X-111313Y801396D01*
X-111260Y801518D01*
X-111203Y801638D01*
X-111143Y801756D01*
X-111080Y801873D01*
X-111013Y801987D01*
X-110943Y802100D01*
X-110869Y802210D01*
X-110793Y802318D01*
X-110713Y802424D01*
X-110630Y802528D01*
X-110544Y802629D01*
X-110455Y802727D01*
X-110364Y802823D01*
X-110269Y802916D01*
X-110172Y803006D01*
X-110072Y803093D01*
X-109970Y803178D01*
X-109865Y803259D01*
X-109758Y803337D01*
X-109649Y803413D01*
X-109538Y803484D01*
X-109424Y803553D01*
X-109309Y803618D01*
X-109191Y803680D01*
X-109072Y803738D01*
X-108951Y803793D01*
X-108829Y803844D01*
X-108705Y803892D01*
X-108580Y803936D01*
X-108454Y803976D01*
X-108326Y804012D01*
X-108198Y804045D01*
X-108069Y804074D01*
X-107938Y804099D01*
X-107808Y804120D01*
X-107676Y804138D01*
X-107544Y804151D01*
X-107412Y804161D01*
X-107280Y804167D01*
X-107147Y804169D01*
X-102632Y804169D01*
X-102457Y804167D01*
X-102283Y804161D01*
X-102109Y804150D01*
X-101935Y804135D01*
X-101761Y804116D01*
X-101588Y804093D01*
X-101416Y804066D01*
X-101244Y804034D01*
X-101073Y803999D01*
X-100903Y803959D01*
X-100734Y803915D01*
X-100566Y803867D01*
X-100399Y803815D01*
X-100234Y803759D01*
X-100070Y803699D01*
X-99907Y803636D01*
X-99747Y803568D01*
X-99587Y803496D01*
X-99430Y803421D01*
X-99274Y803341D01*
X-99121Y803258D01*
X-98969Y803172D01*
X-98820Y803081D01*
X-98673Y802987D01*
X-98528Y802890D01*
X-98385Y802789D01*
X-98245Y802685D01*
X-98108Y802577D01*
X-97973Y802466D01*
X-97841Y802352D01*
X-97712Y802235D01*
X-97585Y802114D01*
X-97462Y801991D01*
X-97341Y801864D01*
X-97224Y801735D01*
X-97110Y801603D01*
X-96999Y801468D01*
X-96891Y801331D01*
X-96787Y801191D01*
X-96686Y801048D01*
X-96589Y800903D01*
X-96495Y800756D01*
X-96404Y800607D01*
X-96318Y800455D01*
X-96235Y800302D01*
X-96155Y800146D01*
X-96080Y799989D01*
X-96008Y799829D01*
X-95940Y799669D01*
X-95877Y799506D01*
X-95817Y799342D01*
X-95761Y799177D01*
X-95709Y799010D01*
X-95661Y798842D01*
X-95617Y798673D01*
X-95577Y798503D01*
X-95542Y798332D01*
X-95510Y798160D01*
X-95483Y797988D01*
X-95460Y797815D01*
X-95441Y797641D01*
X-95426Y797467D01*
X-95415Y797293D01*
X-95409Y797119D01*
X-95407Y796944D01*
D12*
X139700Y749300D03*
X139700Y774700D03*
X139700Y800100D03*
X139700Y825500D03*
X139700Y850900D03*
X139700Y876300D03*
X139700Y901700D03*
D13*
X139700Y927100D03*
X368300Y927100D03*
D12*
X368300Y901700D03*
X368300Y876300D03*
X368300Y850900D03*
X368300Y825500D03*
X368300Y800100D03*
X368300Y774700D03*
X368300Y749300D03*
D14*
X25273Y881888D02*
X127Y881888D01*
X127Y921512D02*
X25273Y921512D01*
X470027Y705612D02*
X495173Y705612D01*
X495173Y665988D02*
X470027Y665988D01*
D15*
X457200Y774700D03*
X457200Y952500D03*
D16*
X12700Y642620D02*
X12700Y627380D01*
X38100Y627380D02*
X38100Y642620D01*
X63500Y642620D02*
X63500Y627380D01*
D14*
X5588Y749427D02*
X5588Y774573D01*
X45212Y774573D02*
X45212Y749427D01*
D17*
X406400Y825500D02*
X457200Y774700D01*
X406400Y825500D02*
X368300Y825500D01*
X444500Y952500D02*
X457200Y952500D01*
X444500Y952500D02*
X368300Y876300D01*
X457200Y952500D02*
X469900Y952500D01*
X508000Y914400D01*
X508000Y731012D01*
X482600Y705612D01*
X482600Y665988D02*
X451612Y665988D01*
X368300Y749300D01*
X215900Y876300D02*
X190500Y901700D01*
X139700Y901700D01*
X215900Y876300D02*
X215900Y723900D01*
X165100Y673100D01*
X63500Y673100D01*
X38100Y647700D01*
X38100Y635000D01*
X121412Y901700D02*
X139700Y901700D01*
X121412Y901700D02*
X101600Y921512D01*
X12700Y921512D01*
X63500Y635000D02*
X177800Y635000D01*
X139700Y927100D02*
X228600Y927100D01*
X254000Y901700D01*
X254000Y711200D01*
X177800Y635000D01*
X12700Y769112D02*
X5588Y762000D01*
X12700Y769112D02*
X12700Y881888D01*
X45212Y762000D02*
X45212Y692912D01*
X12700Y660400D01*
X12700Y635000D01*
M02*
