G04 EAGLE Gerber RS-274X export*
G75*
%MOMM*%
%FSLAX34Y34*%
%LPD*%
%INSilkscreen Top*%
%IPPOS*%
%AMOC8*
5,1,8,0,0,1.08239X$1,22.5*%
G01*
%ADD10C,0.100000*%
%ADD11C,0.101600*%
%ADD12C,0.406400*%
%ADD13C,0.304800*%
%ADD14R,1.016000X1.016000*%
%ADD15C,0.152400*%
%ADD16C,0.127000*%
%ADD17C,0.508000*%
%ADD18R,1.906781X1.270419*%
%ADD19R,1.783309X0.763181*%
%ADD20R,0.764781X1.272141*%
%ADD21R,1.779569X0.763344*%
%ADD22R,0.761613X1.270559*%
%ADD23R,1.775409X0.763194*%
%ADD24R,1.900850X1.271541*%


D10*
X119000Y572900D02*
X389000Y572900D01*
X389000Y972900D01*
X119000Y972900D01*
X119000Y572900D01*
X179700Y825500D02*
X179700Y972900D01*
X329700Y972900D02*
X329700Y825500D01*
X179700Y825500D01*
D11*
X239896Y778742D02*
X239896Y770304D01*
X239898Y770191D01*
X239904Y770078D01*
X239914Y769965D01*
X239928Y769852D01*
X239945Y769740D01*
X239967Y769629D01*
X239992Y769519D01*
X240022Y769409D01*
X240055Y769301D01*
X240092Y769194D01*
X240132Y769088D01*
X240177Y768984D01*
X240225Y768881D01*
X240276Y768780D01*
X240331Y768681D01*
X240389Y768584D01*
X240451Y768489D01*
X240516Y768396D01*
X240584Y768306D01*
X240655Y768218D01*
X240730Y768132D01*
X240807Y768049D01*
X240887Y767969D01*
X240970Y767892D01*
X241056Y767817D01*
X241144Y767746D01*
X241234Y767678D01*
X241327Y767613D01*
X241422Y767551D01*
X241519Y767493D01*
X241618Y767438D01*
X241719Y767387D01*
X241822Y767339D01*
X241926Y767294D01*
X242032Y767254D01*
X242139Y767217D01*
X242247Y767184D01*
X242357Y767154D01*
X242467Y767129D01*
X242578Y767107D01*
X242690Y767090D01*
X242803Y767076D01*
X242916Y767066D01*
X243029Y767060D01*
X243142Y767058D01*
X243255Y767060D01*
X243368Y767066D01*
X243481Y767076D01*
X243594Y767090D01*
X243706Y767107D01*
X243817Y767129D01*
X243927Y767154D01*
X244037Y767184D01*
X244145Y767217D01*
X244252Y767254D01*
X244358Y767294D01*
X244462Y767339D01*
X244565Y767387D01*
X244666Y767438D01*
X244765Y767493D01*
X244862Y767551D01*
X244957Y767613D01*
X245050Y767678D01*
X245140Y767746D01*
X245228Y767817D01*
X245314Y767892D01*
X245397Y767969D01*
X245477Y768049D01*
X245554Y768132D01*
X245629Y768218D01*
X245700Y768306D01*
X245768Y768396D01*
X245833Y768489D01*
X245895Y768584D01*
X245953Y768681D01*
X246008Y768780D01*
X246059Y768881D01*
X246107Y768984D01*
X246152Y769088D01*
X246192Y769194D01*
X246229Y769301D01*
X246262Y769409D01*
X246292Y769519D01*
X246317Y769629D01*
X246339Y769740D01*
X246356Y769852D01*
X246370Y769965D01*
X246380Y770078D01*
X246386Y770191D01*
X246388Y770304D01*
X246387Y770304D02*
X246387Y778742D01*
X254191Y778742D02*
X254191Y767058D01*
X254191Y772900D02*
X252568Y773874D01*
X252567Y773873D02*
X252494Y773920D01*
X252423Y773969D01*
X252353Y774022D01*
X252287Y774078D01*
X252223Y774137D01*
X252161Y774198D01*
X252103Y774262D01*
X252047Y774329D01*
X251995Y774398D01*
X251945Y774470D01*
X251899Y774544D01*
X251856Y774619D01*
X251817Y774697D01*
X251781Y774776D01*
X251749Y774857D01*
X251720Y774939D01*
X251695Y775022D01*
X251674Y775106D01*
X251657Y775191D01*
X251643Y775277D01*
X251634Y775363D01*
X251628Y775450D01*
X251626Y775537D01*
X251628Y775624D01*
X251634Y775711D01*
X251644Y775797D01*
X251657Y775883D01*
X251675Y775968D01*
X251696Y776052D01*
X251721Y776135D01*
X251750Y776218D01*
X251782Y776298D01*
X251818Y776377D01*
X251857Y776455D01*
X251900Y776530D01*
X251947Y776604D01*
X251996Y776675D01*
X252049Y776745D01*
X252104Y776811D01*
X252163Y776875D01*
X252224Y776937D01*
X252289Y776996D01*
X252355Y777051D01*
X252424Y777104D01*
X252496Y777154D01*
X252569Y777200D01*
X252645Y777243D01*
X252722Y777282D01*
X252801Y777318D01*
X252882Y777351D01*
X252964Y777379D01*
X253047Y777405D01*
X253131Y777426D01*
X253217Y777443D01*
X253217Y777444D02*
X253357Y777468D01*
X253499Y777488D01*
X253640Y777504D01*
X253782Y777515D01*
X253925Y777523D01*
X254067Y777527D01*
X254210Y777528D01*
X254353Y777524D01*
X254495Y777516D01*
X254637Y777504D01*
X254779Y777488D01*
X254920Y777469D01*
X255061Y777445D01*
X255201Y777418D01*
X255340Y777386D01*
X255478Y777351D01*
X255616Y777312D01*
X255752Y777269D01*
X255886Y777223D01*
X256020Y777172D01*
X256152Y777119D01*
X256282Y777061D01*
X256411Y777000D01*
X256538Y776935D01*
X256664Y776867D01*
X256787Y776795D01*
X254191Y772900D02*
X255813Y771926D01*
X255814Y771927D02*
X255887Y771880D01*
X255958Y771831D01*
X256028Y771778D01*
X256094Y771722D01*
X256158Y771663D01*
X256220Y771602D01*
X256278Y771538D01*
X256334Y771471D01*
X256386Y771402D01*
X256436Y771330D01*
X256482Y771256D01*
X256525Y771181D01*
X256564Y771103D01*
X256600Y771024D01*
X256632Y770943D01*
X256661Y770861D01*
X256686Y770778D01*
X256707Y770694D01*
X256724Y770609D01*
X256738Y770523D01*
X256747Y770437D01*
X256753Y770350D01*
X256755Y770263D01*
X256753Y770176D01*
X256747Y770089D01*
X256737Y770003D01*
X256724Y769917D01*
X256706Y769832D01*
X256685Y769748D01*
X256660Y769665D01*
X256631Y769582D01*
X256599Y769502D01*
X256563Y769423D01*
X256524Y769345D01*
X256481Y769270D01*
X256434Y769196D01*
X256385Y769125D01*
X256332Y769055D01*
X256277Y768989D01*
X256218Y768925D01*
X256157Y768863D01*
X256092Y768804D01*
X256026Y768749D01*
X255957Y768696D01*
X255885Y768646D01*
X255812Y768600D01*
X255736Y768557D01*
X255659Y768518D01*
X255580Y768482D01*
X255499Y768449D01*
X255417Y768421D01*
X255334Y768395D01*
X255250Y768374D01*
X255165Y768357D01*
X255164Y768356D02*
X255024Y768332D01*
X254882Y768312D01*
X254741Y768296D01*
X254599Y768285D01*
X254456Y768277D01*
X254314Y768273D01*
X254171Y768272D01*
X254028Y768276D01*
X253886Y768284D01*
X253744Y768296D01*
X253602Y768312D01*
X253461Y768331D01*
X253320Y768355D01*
X253180Y768382D01*
X253041Y768414D01*
X252903Y768449D01*
X252765Y768488D01*
X252629Y768531D01*
X252495Y768577D01*
X252361Y768628D01*
X252229Y768681D01*
X252099Y768739D01*
X251970Y768800D01*
X251843Y768865D01*
X251717Y768933D01*
X251594Y769005D01*
X261613Y776146D02*
X264858Y778742D01*
X264858Y767058D01*
X261613Y767058D02*
X268104Y767058D01*
D12*
X76200Y855980D02*
X50800Y855980D01*
X-25400Y855980D01*
X-25400Y944880D01*
X76200Y944880D02*
X76200Y855980D01*
D13*
X50800Y855980D02*
X50800Y944880D01*
D12*
X-25400Y944880D01*
X50800Y944880D02*
X76200Y944880D01*
D14*
X12700Y881888D03*
X12700Y921512D03*
D15*
X-33782Y871105D02*
X-50038Y871105D01*
X-50038Y875621D01*
X-50036Y875754D01*
X-50030Y875886D01*
X-50020Y876018D01*
X-50007Y876150D01*
X-49989Y876282D01*
X-49968Y876412D01*
X-49943Y876543D01*
X-49914Y876672D01*
X-49881Y876800D01*
X-49845Y876928D01*
X-49805Y877054D01*
X-49761Y877179D01*
X-49713Y877303D01*
X-49662Y877425D01*
X-49607Y877546D01*
X-49549Y877665D01*
X-49487Y877783D01*
X-49422Y877898D01*
X-49353Y878012D01*
X-49282Y878123D01*
X-49206Y878232D01*
X-49128Y878339D01*
X-49047Y878444D01*
X-48962Y878546D01*
X-48875Y878646D01*
X-48785Y878743D01*
X-48692Y878838D01*
X-48596Y878929D01*
X-48498Y879018D01*
X-48397Y879104D01*
X-48293Y879187D01*
X-48187Y879267D01*
X-48079Y879343D01*
X-47969Y879417D01*
X-47856Y879487D01*
X-47742Y879554D01*
X-47625Y879617D01*
X-47507Y879677D01*
X-47387Y879734D01*
X-47265Y879787D01*
X-47142Y879836D01*
X-47018Y879882D01*
X-46892Y879924D01*
X-46765Y879962D01*
X-46637Y879997D01*
X-46508Y880028D01*
X-46379Y880055D01*
X-46248Y880078D01*
X-46117Y880098D01*
X-45985Y880113D01*
X-45853Y880125D01*
X-45721Y880133D01*
X-45588Y880137D01*
X-45456Y880137D01*
X-45323Y880133D01*
X-45191Y880125D01*
X-45059Y880113D01*
X-44927Y880098D01*
X-44796Y880078D01*
X-44665Y880055D01*
X-44536Y880028D01*
X-44407Y879997D01*
X-44279Y879962D01*
X-44152Y879924D01*
X-44026Y879882D01*
X-43902Y879836D01*
X-43779Y879787D01*
X-43657Y879734D01*
X-43537Y879677D01*
X-43419Y879617D01*
X-43302Y879554D01*
X-43188Y879487D01*
X-43075Y879417D01*
X-42965Y879343D01*
X-42857Y879267D01*
X-42751Y879187D01*
X-42647Y879104D01*
X-42546Y879018D01*
X-42448Y878929D01*
X-42352Y878838D01*
X-42259Y878743D01*
X-42169Y878646D01*
X-42082Y878546D01*
X-41997Y878444D01*
X-41916Y878339D01*
X-41838Y878232D01*
X-41762Y878123D01*
X-41691Y878012D01*
X-41622Y877898D01*
X-41557Y877783D01*
X-41495Y877665D01*
X-41437Y877546D01*
X-41382Y877425D01*
X-41331Y877303D01*
X-41283Y877179D01*
X-41239Y877054D01*
X-41199Y876928D01*
X-41163Y876800D01*
X-41130Y876672D01*
X-41101Y876543D01*
X-41076Y876412D01*
X-41055Y876282D01*
X-41037Y876150D01*
X-41024Y876018D01*
X-41014Y875886D01*
X-41008Y875754D01*
X-41006Y875621D01*
X-41007Y875621D02*
X-41007Y871105D01*
X-38298Y886004D02*
X-45522Y886004D01*
X-45655Y886006D01*
X-45787Y886012D01*
X-45919Y886022D01*
X-46051Y886035D01*
X-46183Y886053D01*
X-46313Y886074D01*
X-46444Y886099D01*
X-46573Y886128D01*
X-46701Y886161D01*
X-46829Y886197D01*
X-46955Y886237D01*
X-47080Y886281D01*
X-47204Y886329D01*
X-47326Y886380D01*
X-47447Y886435D01*
X-47566Y886493D01*
X-47684Y886555D01*
X-47799Y886620D01*
X-47913Y886689D01*
X-48024Y886760D01*
X-48133Y886836D01*
X-48240Y886914D01*
X-48345Y886995D01*
X-48447Y887080D01*
X-48547Y887167D01*
X-48644Y887257D01*
X-48739Y887350D01*
X-48830Y887446D01*
X-48919Y887544D01*
X-49005Y887645D01*
X-49088Y887749D01*
X-49168Y887855D01*
X-49244Y887963D01*
X-49318Y888073D01*
X-49388Y888186D01*
X-49455Y888300D01*
X-49518Y888417D01*
X-49578Y888535D01*
X-49635Y888655D01*
X-49688Y888777D01*
X-49737Y888900D01*
X-49783Y889024D01*
X-49825Y889150D01*
X-49863Y889277D01*
X-49898Y889405D01*
X-49929Y889534D01*
X-49956Y889663D01*
X-49979Y889794D01*
X-49999Y889925D01*
X-50014Y890057D01*
X-50026Y890189D01*
X-50034Y890321D01*
X-50038Y890454D01*
X-50038Y890586D01*
X-50034Y890719D01*
X-50026Y890851D01*
X-50014Y890983D01*
X-49999Y891115D01*
X-49979Y891246D01*
X-49956Y891377D01*
X-49929Y891506D01*
X-49898Y891635D01*
X-49863Y891763D01*
X-49825Y891890D01*
X-49783Y892016D01*
X-49737Y892140D01*
X-49688Y892263D01*
X-49635Y892385D01*
X-49578Y892505D01*
X-49518Y892623D01*
X-49455Y892740D01*
X-49388Y892854D01*
X-49318Y892967D01*
X-49244Y893077D01*
X-49168Y893185D01*
X-49088Y893291D01*
X-49005Y893395D01*
X-48919Y893496D01*
X-48830Y893594D01*
X-48739Y893690D01*
X-48644Y893783D01*
X-48547Y893873D01*
X-48447Y893960D01*
X-48345Y894045D01*
X-48240Y894126D01*
X-48133Y894204D01*
X-48024Y894280D01*
X-47913Y894351D01*
X-47799Y894420D01*
X-47684Y894485D01*
X-47566Y894547D01*
X-47447Y894605D01*
X-47326Y894660D01*
X-47204Y894711D01*
X-47080Y894759D01*
X-46955Y894803D01*
X-46829Y894843D01*
X-46701Y894879D01*
X-46573Y894912D01*
X-46444Y894941D01*
X-46313Y894966D01*
X-46183Y894987D01*
X-46051Y895005D01*
X-45919Y895018D01*
X-45787Y895028D01*
X-45655Y895034D01*
X-45522Y895036D01*
X-38298Y895036D01*
X-38165Y895034D01*
X-38033Y895028D01*
X-37901Y895018D01*
X-37769Y895005D01*
X-37637Y894987D01*
X-37507Y894966D01*
X-37376Y894941D01*
X-37247Y894912D01*
X-37119Y894879D01*
X-36991Y894843D01*
X-36865Y894803D01*
X-36740Y894759D01*
X-36616Y894711D01*
X-36494Y894660D01*
X-36373Y894605D01*
X-36254Y894547D01*
X-36136Y894485D01*
X-36021Y894420D01*
X-35907Y894351D01*
X-35796Y894280D01*
X-35687Y894204D01*
X-35580Y894126D01*
X-35475Y894045D01*
X-35373Y893960D01*
X-35273Y893873D01*
X-35176Y893783D01*
X-35081Y893690D01*
X-34990Y893594D01*
X-34901Y893496D01*
X-34815Y893395D01*
X-34732Y893291D01*
X-34652Y893185D01*
X-34576Y893077D01*
X-34502Y892967D01*
X-34432Y892854D01*
X-34365Y892740D01*
X-34302Y892623D01*
X-34242Y892505D01*
X-34185Y892385D01*
X-34132Y892263D01*
X-34083Y892140D01*
X-34037Y892016D01*
X-33995Y891890D01*
X-33957Y891763D01*
X-33922Y891635D01*
X-33891Y891506D01*
X-33864Y891377D01*
X-33841Y891246D01*
X-33821Y891115D01*
X-33806Y890983D01*
X-33794Y890851D01*
X-33786Y890719D01*
X-33782Y890586D01*
X-33782Y890454D01*
X-33786Y890321D01*
X-33794Y890189D01*
X-33806Y890057D01*
X-33821Y889925D01*
X-33841Y889794D01*
X-33864Y889663D01*
X-33891Y889534D01*
X-33922Y889405D01*
X-33957Y889277D01*
X-33995Y889150D01*
X-34037Y889024D01*
X-34083Y888900D01*
X-34132Y888777D01*
X-34185Y888655D01*
X-34242Y888535D01*
X-34302Y888417D01*
X-34365Y888300D01*
X-34432Y888186D01*
X-34502Y888073D01*
X-34576Y887963D01*
X-34652Y887855D01*
X-34732Y887749D01*
X-34815Y887645D01*
X-34901Y887544D01*
X-34990Y887446D01*
X-35081Y887350D01*
X-35176Y887257D01*
X-35273Y887167D01*
X-35373Y887080D01*
X-35475Y886995D01*
X-35580Y886914D01*
X-35687Y886836D01*
X-35796Y886760D01*
X-35907Y886689D01*
X-36021Y886620D01*
X-36136Y886555D01*
X-36254Y886493D01*
X-36373Y886435D01*
X-36494Y886380D01*
X-36616Y886329D01*
X-36740Y886281D01*
X-36865Y886237D01*
X-36991Y886197D01*
X-37119Y886161D01*
X-37247Y886128D01*
X-37376Y886099D01*
X-37507Y886074D01*
X-37637Y886053D01*
X-37769Y886035D01*
X-37901Y886022D01*
X-38033Y886012D01*
X-38165Y886006D01*
X-38298Y886004D01*
X-50038Y901011D02*
X-33782Y904623D01*
X-44619Y908235D01*
X-33782Y911848D01*
X-50038Y915460D01*
X-33782Y921986D02*
X-33782Y929211D01*
X-33782Y921986D02*
X-50038Y921986D01*
X-50038Y929211D01*
X-42813Y927405D02*
X-42813Y921986D01*
X-50038Y935595D02*
X-33782Y935595D01*
X-50038Y935595D02*
X-50038Y940110D01*
X-50036Y940243D01*
X-50030Y940375D01*
X-50020Y940507D01*
X-50007Y940639D01*
X-49989Y940771D01*
X-49968Y940901D01*
X-49943Y941032D01*
X-49914Y941161D01*
X-49881Y941289D01*
X-49845Y941417D01*
X-49805Y941543D01*
X-49761Y941668D01*
X-49713Y941792D01*
X-49662Y941914D01*
X-49607Y942035D01*
X-49549Y942154D01*
X-49487Y942272D01*
X-49422Y942387D01*
X-49353Y942501D01*
X-49282Y942612D01*
X-49206Y942721D01*
X-49128Y942828D01*
X-49047Y942933D01*
X-48962Y943035D01*
X-48875Y943135D01*
X-48785Y943232D01*
X-48692Y943327D01*
X-48596Y943418D01*
X-48498Y943507D01*
X-48397Y943593D01*
X-48293Y943676D01*
X-48187Y943756D01*
X-48079Y943832D01*
X-47969Y943906D01*
X-47856Y943976D01*
X-47742Y944043D01*
X-47625Y944106D01*
X-47507Y944166D01*
X-47387Y944223D01*
X-47265Y944276D01*
X-47142Y944325D01*
X-47018Y944371D01*
X-46892Y944413D01*
X-46765Y944451D01*
X-46637Y944486D01*
X-46508Y944517D01*
X-46379Y944544D01*
X-46248Y944567D01*
X-46117Y944587D01*
X-45985Y944602D01*
X-45853Y944614D01*
X-45721Y944622D01*
X-45588Y944626D01*
X-45456Y944626D01*
X-45323Y944622D01*
X-45191Y944614D01*
X-45059Y944602D01*
X-44927Y944587D01*
X-44796Y944567D01*
X-44665Y944544D01*
X-44536Y944517D01*
X-44407Y944486D01*
X-44279Y944451D01*
X-44152Y944413D01*
X-44026Y944371D01*
X-43902Y944325D01*
X-43779Y944276D01*
X-43657Y944223D01*
X-43537Y944166D01*
X-43419Y944106D01*
X-43302Y944043D01*
X-43188Y943976D01*
X-43075Y943906D01*
X-42965Y943832D01*
X-42857Y943756D01*
X-42751Y943676D01*
X-42647Y943593D01*
X-42546Y943507D01*
X-42448Y943418D01*
X-42352Y943327D01*
X-42259Y943232D01*
X-42169Y943135D01*
X-42082Y943035D01*
X-41997Y942933D01*
X-41916Y942828D01*
X-41838Y942721D01*
X-41762Y942612D01*
X-41691Y942501D01*
X-41622Y942387D01*
X-41557Y942272D01*
X-41495Y942154D01*
X-41437Y942035D01*
X-41382Y941914D01*
X-41331Y941792D01*
X-41283Y941668D01*
X-41239Y941543D01*
X-41199Y941417D01*
X-41163Y941289D01*
X-41130Y941161D01*
X-41101Y941032D01*
X-41076Y940901D01*
X-41055Y940771D01*
X-41037Y940639D01*
X-41024Y940507D01*
X-41014Y940375D01*
X-41008Y940243D01*
X-41006Y940110D01*
X-41007Y940110D02*
X-41007Y935595D01*
X-41007Y941014D02*
X-33782Y944626D01*
D12*
X419100Y731520D02*
X444500Y731520D01*
X520700Y731520D01*
X520700Y642620D01*
X419100Y642620D02*
X419100Y731520D01*
D13*
X444500Y731520D02*
X444500Y642620D01*
D12*
X520700Y642620D01*
X444500Y642620D02*
X419100Y642620D01*
D14*
X482600Y705612D03*
X482600Y665988D03*
D15*
X536307Y647390D02*
X536307Y642874D01*
X536306Y647390D02*
X536308Y647523D01*
X536314Y647655D01*
X536324Y647787D01*
X536337Y647919D01*
X536355Y648051D01*
X536376Y648181D01*
X536401Y648312D01*
X536430Y648441D01*
X536463Y648569D01*
X536499Y648697D01*
X536539Y648823D01*
X536583Y648948D01*
X536631Y649072D01*
X536682Y649194D01*
X536737Y649315D01*
X536795Y649434D01*
X536857Y649552D01*
X536922Y649667D01*
X536991Y649781D01*
X537062Y649892D01*
X537138Y650001D01*
X537216Y650108D01*
X537297Y650213D01*
X537382Y650315D01*
X537469Y650415D01*
X537559Y650512D01*
X537652Y650607D01*
X537748Y650698D01*
X537846Y650787D01*
X537947Y650873D01*
X538051Y650956D01*
X538157Y651036D01*
X538265Y651112D01*
X538375Y651186D01*
X538488Y651256D01*
X538602Y651323D01*
X538719Y651386D01*
X538837Y651446D01*
X538957Y651503D01*
X539079Y651556D01*
X539202Y651605D01*
X539326Y651651D01*
X539452Y651693D01*
X539579Y651731D01*
X539707Y651766D01*
X539836Y651797D01*
X539965Y651824D01*
X540096Y651847D01*
X540227Y651867D01*
X540359Y651882D01*
X540491Y651894D01*
X540623Y651902D01*
X540756Y651906D01*
X540888Y651906D01*
X541021Y651902D01*
X541153Y651894D01*
X541285Y651882D01*
X541417Y651867D01*
X541548Y651847D01*
X541679Y651824D01*
X541808Y651797D01*
X541937Y651766D01*
X542065Y651731D01*
X542192Y651693D01*
X542318Y651651D01*
X542442Y651605D01*
X542565Y651556D01*
X542687Y651503D01*
X542807Y651446D01*
X542925Y651386D01*
X543042Y651323D01*
X543156Y651256D01*
X543269Y651186D01*
X543379Y651112D01*
X543487Y651036D01*
X543593Y650956D01*
X543697Y650873D01*
X543798Y650787D01*
X543896Y650698D01*
X543992Y650607D01*
X544085Y650512D01*
X544175Y650415D01*
X544262Y650315D01*
X544347Y650213D01*
X544428Y650108D01*
X544506Y650001D01*
X544582Y649892D01*
X544653Y649781D01*
X544722Y649667D01*
X544787Y649552D01*
X544849Y649434D01*
X544907Y649315D01*
X544962Y649194D01*
X545013Y649072D01*
X545061Y648948D01*
X545105Y648823D01*
X545145Y648697D01*
X545181Y648569D01*
X545214Y648441D01*
X545243Y648312D01*
X545268Y648181D01*
X545289Y648051D01*
X545307Y647919D01*
X545320Y647787D01*
X545330Y647655D01*
X545336Y647523D01*
X545338Y647390D01*
X545338Y642874D01*
X529082Y642874D01*
X529082Y647390D01*
X529084Y647509D01*
X529090Y647629D01*
X529100Y647748D01*
X529114Y647866D01*
X529131Y647985D01*
X529153Y648102D01*
X529178Y648219D01*
X529208Y648334D01*
X529241Y648449D01*
X529278Y648563D01*
X529318Y648675D01*
X529363Y648786D01*
X529411Y648895D01*
X529462Y649003D01*
X529517Y649109D01*
X529576Y649213D01*
X529638Y649315D01*
X529703Y649415D01*
X529772Y649513D01*
X529844Y649609D01*
X529919Y649702D01*
X529996Y649792D01*
X530077Y649880D01*
X530161Y649965D01*
X530248Y650047D01*
X530337Y650127D01*
X530429Y650203D01*
X530523Y650277D01*
X530620Y650347D01*
X530718Y650414D01*
X530819Y650478D01*
X530923Y650538D01*
X531028Y650595D01*
X531135Y650648D01*
X531243Y650698D01*
X531353Y650744D01*
X531465Y650786D01*
X531578Y650825D01*
X531692Y650860D01*
X531807Y650891D01*
X531924Y650919D01*
X532041Y650942D01*
X532158Y650962D01*
X532277Y650978D01*
X532396Y650990D01*
X532515Y650998D01*
X532634Y651002D01*
X532754Y651002D01*
X532873Y650998D01*
X532992Y650990D01*
X533111Y650978D01*
X533230Y650962D01*
X533347Y650942D01*
X533464Y650919D01*
X533581Y650891D01*
X533696Y650860D01*
X533810Y650825D01*
X533923Y650786D01*
X534035Y650744D01*
X534145Y650698D01*
X534253Y650648D01*
X534360Y650595D01*
X534465Y650538D01*
X534569Y650478D01*
X534670Y650414D01*
X534768Y650347D01*
X534865Y650277D01*
X534959Y650203D01*
X535051Y650127D01*
X535140Y650047D01*
X535227Y649965D01*
X535311Y649880D01*
X535392Y649792D01*
X535469Y649702D01*
X535544Y649609D01*
X535616Y649513D01*
X535685Y649415D01*
X535750Y649315D01*
X535812Y649213D01*
X535871Y649109D01*
X535926Y649003D01*
X535977Y648895D01*
X536025Y648786D01*
X536070Y648675D01*
X536110Y648563D01*
X536147Y648449D01*
X536180Y648334D01*
X536210Y648219D01*
X536235Y648102D01*
X536257Y647985D01*
X536274Y647866D01*
X536288Y647748D01*
X536298Y647629D01*
X536304Y647509D01*
X536306Y647390D01*
X540822Y658294D02*
X529082Y658294D01*
X540822Y658294D02*
X540955Y658296D01*
X541087Y658302D01*
X541219Y658312D01*
X541351Y658325D01*
X541483Y658343D01*
X541613Y658364D01*
X541744Y658389D01*
X541873Y658418D01*
X542001Y658451D01*
X542129Y658487D01*
X542255Y658527D01*
X542380Y658571D01*
X542504Y658619D01*
X542626Y658670D01*
X542747Y658725D01*
X542866Y658783D01*
X542984Y658845D01*
X543099Y658910D01*
X543213Y658979D01*
X543324Y659050D01*
X543433Y659126D01*
X543540Y659204D01*
X543645Y659285D01*
X543747Y659370D01*
X543847Y659457D01*
X543944Y659547D01*
X544039Y659640D01*
X544130Y659736D01*
X544219Y659834D01*
X544305Y659935D01*
X544388Y660039D01*
X544468Y660145D01*
X544544Y660253D01*
X544618Y660363D01*
X544688Y660476D01*
X544755Y660590D01*
X544818Y660707D01*
X544878Y660825D01*
X544935Y660945D01*
X544988Y661067D01*
X545037Y661190D01*
X545083Y661314D01*
X545125Y661440D01*
X545163Y661567D01*
X545198Y661695D01*
X545229Y661824D01*
X545256Y661953D01*
X545279Y662084D01*
X545299Y662215D01*
X545314Y662347D01*
X545326Y662479D01*
X545334Y662611D01*
X545338Y662744D01*
X545338Y662876D01*
X545334Y663009D01*
X545326Y663141D01*
X545314Y663273D01*
X545299Y663405D01*
X545279Y663536D01*
X545256Y663667D01*
X545229Y663796D01*
X545198Y663925D01*
X545163Y664053D01*
X545125Y664180D01*
X545083Y664306D01*
X545037Y664430D01*
X544988Y664553D01*
X544935Y664675D01*
X544878Y664795D01*
X544818Y664913D01*
X544755Y665030D01*
X544688Y665144D01*
X544618Y665257D01*
X544544Y665367D01*
X544468Y665475D01*
X544388Y665581D01*
X544305Y665685D01*
X544219Y665786D01*
X544130Y665884D01*
X544039Y665980D01*
X543944Y666073D01*
X543847Y666163D01*
X543747Y666250D01*
X543645Y666335D01*
X543540Y666416D01*
X543433Y666494D01*
X543324Y666570D01*
X543213Y666641D01*
X543099Y666710D01*
X542984Y666775D01*
X542866Y666837D01*
X542747Y666895D01*
X542626Y666950D01*
X542504Y667001D01*
X542380Y667049D01*
X542255Y667093D01*
X542129Y667133D01*
X542001Y667169D01*
X541873Y667202D01*
X541744Y667231D01*
X541613Y667256D01*
X541483Y667277D01*
X541351Y667295D01*
X541219Y667308D01*
X541087Y667318D01*
X540955Y667324D01*
X540822Y667326D01*
X540822Y667325D02*
X529082Y667325D01*
X529082Y677920D02*
X545338Y677920D01*
X529082Y673405D02*
X529082Y682436D01*
X529082Y691467D02*
X545338Y691467D01*
X529082Y686952D02*
X529082Y695983D01*
X533598Y701541D02*
X540822Y701541D01*
X533598Y701540D02*
X533465Y701542D01*
X533333Y701548D01*
X533201Y701558D01*
X533069Y701571D01*
X532937Y701589D01*
X532807Y701610D01*
X532676Y701635D01*
X532547Y701664D01*
X532419Y701697D01*
X532291Y701733D01*
X532165Y701773D01*
X532040Y701817D01*
X531916Y701865D01*
X531794Y701916D01*
X531673Y701971D01*
X531554Y702029D01*
X531436Y702091D01*
X531321Y702156D01*
X531207Y702225D01*
X531096Y702296D01*
X530987Y702372D01*
X530880Y702450D01*
X530775Y702531D01*
X530673Y702616D01*
X530573Y702703D01*
X530476Y702793D01*
X530381Y702886D01*
X530290Y702982D01*
X530201Y703080D01*
X530115Y703181D01*
X530032Y703285D01*
X529952Y703391D01*
X529876Y703499D01*
X529802Y703609D01*
X529732Y703722D01*
X529665Y703836D01*
X529602Y703953D01*
X529542Y704071D01*
X529485Y704191D01*
X529432Y704313D01*
X529383Y704436D01*
X529337Y704560D01*
X529295Y704686D01*
X529257Y704813D01*
X529222Y704941D01*
X529191Y705070D01*
X529164Y705199D01*
X529141Y705330D01*
X529121Y705461D01*
X529106Y705593D01*
X529094Y705725D01*
X529086Y705857D01*
X529082Y705990D01*
X529082Y706122D01*
X529086Y706255D01*
X529094Y706387D01*
X529106Y706519D01*
X529121Y706651D01*
X529141Y706782D01*
X529164Y706913D01*
X529191Y707042D01*
X529222Y707171D01*
X529257Y707299D01*
X529295Y707426D01*
X529337Y707552D01*
X529383Y707676D01*
X529432Y707799D01*
X529485Y707921D01*
X529542Y708041D01*
X529602Y708159D01*
X529665Y708276D01*
X529732Y708390D01*
X529802Y708503D01*
X529876Y708613D01*
X529952Y708721D01*
X530032Y708827D01*
X530115Y708931D01*
X530201Y709032D01*
X530290Y709130D01*
X530381Y709226D01*
X530476Y709319D01*
X530573Y709409D01*
X530673Y709496D01*
X530775Y709581D01*
X530880Y709662D01*
X530987Y709740D01*
X531096Y709816D01*
X531207Y709887D01*
X531321Y709956D01*
X531436Y710021D01*
X531554Y710083D01*
X531673Y710141D01*
X531794Y710196D01*
X531916Y710247D01*
X532040Y710295D01*
X532165Y710339D01*
X532291Y710379D01*
X532419Y710415D01*
X532547Y710448D01*
X532676Y710477D01*
X532807Y710502D01*
X532937Y710523D01*
X533069Y710541D01*
X533201Y710554D01*
X533333Y710564D01*
X533465Y710570D01*
X533598Y710572D01*
X540822Y710572D01*
X540955Y710570D01*
X541087Y710564D01*
X541219Y710554D01*
X541351Y710541D01*
X541483Y710523D01*
X541613Y710502D01*
X541744Y710477D01*
X541873Y710448D01*
X542001Y710415D01*
X542129Y710379D01*
X542255Y710339D01*
X542380Y710295D01*
X542504Y710247D01*
X542626Y710196D01*
X542747Y710141D01*
X542866Y710083D01*
X542984Y710021D01*
X543099Y709956D01*
X543213Y709887D01*
X543324Y709816D01*
X543433Y709740D01*
X543540Y709662D01*
X543645Y709581D01*
X543747Y709496D01*
X543847Y709409D01*
X543944Y709319D01*
X544039Y709226D01*
X544130Y709130D01*
X544219Y709032D01*
X544305Y708931D01*
X544388Y708827D01*
X544468Y708721D01*
X544544Y708613D01*
X544618Y708503D01*
X544688Y708390D01*
X544755Y708276D01*
X544818Y708159D01*
X544878Y708041D01*
X544935Y707921D01*
X544988Y707799D01*
X545037Y707676D01*
X545083Y707552D01*
X545125Y707426D01*
X545163Y707299D01*
X545198Y707171D01*
X545229Y707042D01*
X545256Y706913D01*
X545279Y706782D01*
X545299Y706651D01*
X545314Y706519D01*
X545326Y706387D01*
X545334Y706255D01*
X545338Y706122D01*
X545338Y705990D01*
X545334Y705857D01*
X545326Y705725D01*
X545314Y705593D01*
X545299Y705461D01*
X545279Y705330D01*
X545256Y705199D01*
X545229Y705070D01*
X545198Y704941D01*
X545163Y704813D01*
X545125Y704686D01*
X545083Y704560D01*
X545037Y704436D01*
X544988Y704313D01*
X544935Y704191D01*
X544878Y704071D01*
X544818Y703953D01*
X544755Y703836D01*
X544688Y703722D01*
X544618Y703609D01*
X544544Y703499D01*
X544468Y703391D01*
X544388Y703285D01*
X544305Y703181D01*
X544219Y703080D01*
X544130Y702982D01*
X544039Y702886D01*
X543944Y702793D01*
X543847Y702703D01*
X543747Y702616D01*
X543645Y702531D01*
X543540Y702450D01*
X543433Y702372D01*
X543324Y702296D01*
X543213Y702225D01*
X543099Y702156D01*
X542984Y702091D01*
X542866Y702029D01*
X542747Y701971D01*
X542626Y701916D01*
X542504Y701865D01*
X542380Y701817D01*
X542255Y701773D01*
X542129Y701733D01*
X542001Y701697D01*
X541873Y701664D01*
X541744Y701635D01*
X541613Y701610D01*
X541483Y701589D01*
X541351Y701571D01*
X541219Y701558D01*
X541087Y701548D01*
X540955Y701542D01*
X540822Y701540D01*
X545338Y717693D02*
X529082Y717693D01*
X545338Y726724D01*
X529082Y726724D01*
X426720Y784860D02*
X426720Y793750D01*
X429260Y796290D01*
X487680Y793750D02*
X487680Y784860D01*
X487680Y793750D02*
X485140Y796290D01*
X429260Y930910D02*
X426720Y933450D01*
X429260Y930910D02*
X429260Y796290D01*
X485140Y930910D02*
X487680Y933450D01*
X485140Y930910D02*
X485140Y796290D01*
X426720Y933450D02*
X426720Y942340D01*
X487680Y942340D02*
X487680Y933450D01*
X483870Y781050D02*
X467360Y781050D01*
X447040Y781050D02*
X430530Y781050D01*
X467360Y946150D02*
X483870Y946150D01*
X447040Y946150D02*
X430530Y946150D01*
X426720Y784860D02*
X426722Y784738D01*
X426728Y784616D01*
X426738Y784494D01*
X426751Y784373D01*
X426769Y784252D01*
X426790Y784132D01*
X426816Y784012D01*
X426845Y783894D01*
X426877Y783776D01*
X426914Y783659D01*
X426954Y783544D01*
X426998Y783430D01*
X427046Y783318D01*
X427097Y783207D01*
X427152Y783098D01*
X427210Y782990D01*
X427272Y782885D01*
X427337Y782782D01*
X427405Y782680D01*
X427477Y782581D01*
X427551Y782485D01*
X427629Y782390D01*
X427710Y782299D01*
X427793Y782209D01*
X427879Y782123D01*
X427969Y782040D01*
X428060Y781959D01*
X428155Y781881D01*
X428251Y781807D01*
X428350Y781735D01*
X428452Y781667D01*
X428555Y781602D01*
X428660Y781540D01*
X428768Y781482D01*
X428877Y781427D01*
X428988Y781376D01*
X429100Y781328D01*
X429214Y781284D01*
X429329Y781244D01*
X429446Y781207D01*
X429564Y781175D01*
X429682Y781146D01*
X429802Y781120D01*
X429922Y781099D01*
X430043Y781081D01*
X430164Y781068D01*
X430286Y781058D01*
X430408Y781052D01*
X430530Y781050D01*
X426720Y942340D02*
X426722Y942462D01*
X426728Y942584D01*
X426738Y942706D01*
X426751Y942827D01*
X426769Y942948D01*
X426790Y943068D01*
X426816Y943188D01*
X426845Y943306D01*
X426877Y943424D01*
X426914Y943541D01*
X426954Y943656D01*
X426998Y943770D01*
X427046Y943882D01*
X427097Y943993D01*
X427152Y944102D01*
X427210Y944210D01*
X427272Y944315D01*
X427337Y944418D01*
X427405Y944520D01*
X427477Y944619D01*
X427551Y944715D01*
X427629Y944810D01*
X427710Y944901D01*
X427793Y944991D01*
X427879Y945077D01*
X427969Y945160D01*
X428060Y945241D01*
X428155Y945319D01*
X428251Y945393D01*
X428350Y945465D01*
X428452Y945533D01*
X428555Y945598D01*
X428660Y945660D01*
X428768Y945718D01*
X428877Y945773D01*
X428988Y945824D01*
X429100Y945872D01*
X429214Y945916D01*
X429329Y945956D01*
X429446Y945993D01*
X429564Y946025D01*
X429682Y946054D01*
X429802Y946080D01*
X429922Y946101D01*
X430043Y946119D01*
X430164Y946132D01*
X430286Y946142D01*
X430408Y946148D01*
X430530Y946150D01*
X487680Y784860D02*
X487678Y784738D01*
X487672Y784616D01*
X487662Y784494D01*
X487649Y784373D01*
X487631Y784252D01*
X487610Y784132D01*
X487584Y784012D01*
X487555Y783894D01*
X487523Y783776D01*
X487486Y783659D01*
X487446Y783544D01*
X487402Y783430D01*
X487354Y783318D01*
X487303Y783207D01*
X487248Y783098D01*
X487190Y782990D01*
X487128Y782885D01*
X487063Y782782D01*
X486995Y782680D01*
X486923Y782581D01*
X486849Y782485D01*
X486771Y782390D01*
X486690Y782299D01*
X486607Y782209D01*
X486521Y782123D01*
X486431Y782040D01*
X486340Y781959D01*
X486245Y781881D01*
X486149Y781807D01*
X486050Y781735D01*
X485948Y781667D01*
X485845Y781602D01*
X485740Y781540D01*
X485632Y781482D01*
X485523Y781427D01*
X485412Y781376D01*
X485300Y781328D01*
X485186Y781284D01*
X485071Y781244D01*
X484954Y781207D01*
X484836Y781175D01*
X484718Y781146D01*
X484598Y781120D01*
X484478Y781099D01*
X484357Y781081D01*
X484236Y781068D01*
X484114Y781058D01*
X483992Y781052D01*
X483870Y781050D01*
X487680Y942340D02*
X487678Y942462D01*
X487672Y942584D01*
X487662Y942706D01*
X487649Y942827D01*
X487631Y942948D01*
X487610Y943068D01*
X487584Y943188D01*
X487555Y943306D01*
X487523Y943424D01*
X487486Y943541D01*
X487446Y943656D01*
X487402Y943770D01*
X487354Y943882D01*
X487303Y943993D01*
X487248Y944102D01*
X487190Y944210D01*
X487128Y944315D01*
X487063Y944418D01*
X486995Y944520D01*
X486923Y944619D01*
X486849Y944715D01*
X486771Y944810D01*
X486690Y944901D01*
X486607Y944991D01*
X486521Y945077D01*
X486431Y945160D01*
X486340Y945241D01*
X486245Y945319D01*
X486149Y945393D01*
X486050Y945465D01*
X485948Y945533D01*
X485845Y945598D01*
X485740Y945660D01*
X485632Y945718D01*
X485523Y945773D01*
X485412Y945824D01*
X485300Y945872D01*
X485186Y945916D01*
X485071Y945956D01*
X484954Y945993D01*
X484836Y946025D01*
X484718Y946054D01*
X484598Y946080D01*
X484478Y946101D01*
X484357Y946119D01*
X484236Y946132D01*
X484114Y946142D01*
X483992Y946148D01*
X483870Y946150D01*
D16*
X422021Y782955D02*
X410591Y782955D01*
X410591Y786130D01*
X410593Y786241D01*
X410599Y786351D01*
X410608Y786462D01*
X410622Y786572D01*
X410639Y786681D01*
X410660Y786790D01*
X410685Y786898D01*
X410714Y787005D01*
X410746Y787111D01*
X410782Y787216D01*
X410822Y787319D01*
X410865Y787421D01*
X410912Y787522D01*
X410963Y787621D01*
X411016Y787718D01*
X411073Y787812D01*
X411134Y787905D01*
X411197Y787996D01*
X411264Y788085D01*
X411334Y788171D01*
X411407Y788254D01*
X411482Y788336D01*
X411560Y788414D01*
X411642Y788489D01*
X411725Y788562D01*
X411811Y788632D01*
X411900Y788699D01*
X411991Y788762D01*
X412084Y788823D01*
X412179Y788880D01*
X412275Y788933D01*
X412374Y788984D01*
X412475Y789031D01*
X412577Y789074D01*
X412680Y789114D01*
X412785Y789150D01*
X412891Y789182D01*
X412998Y789211D01*
X413106Y789236D01*
X413215Y789257D01*
X413324Y789274D01*
X413434Y789288D01*
X413545Y789297D01*
X413655Y789303D01*
X413766Y789305D01*
X413877Y789303D01*
X413987Y789297D01*
X414098Y789288D01*
X414208Y789274D01*
X414317Y789257D01*
X414426Y789236D01*
X414534Y789211D01*
X414641Y789182D01*
X414747Y789150D01*
X414852Y789114D01*
X414955Y789074D01*
X415057Y789031D01*
X415158Y788984D01*
X415257Y788933D01*
X415354Y788880D01*
X415448Y788823D01*
X415541Y788762D01*
X415632Y788699D01*
X415721Y788632D01*
X415807Y788562D01*
X415890Y788489D01*
X415972Y788414D01*
X416050Y788336D01*
X416125Y788254D01*
X416198Y788171D01*
X416268Y788085D01*
X416335Y787996D01*
X416398Y787905D01*
X416459Y787812D01*
X416516Y787718D01*
X416569Y787621D01*
X416620Y787522D01*
X416667Y787421D01*
X416710Y787319D01*
X416750Y787216D01*
X416786Y787111D01*
X416818Y787005D01*
X416847Y786898D01*
X416872Y786790D01*
X416893Y786681D01*
X416910Y786572D01*
X416924Y786462D01*
X416933Y786351D01*
X416939Y786241D01*
X416941Y786130D01*
X416941Y782955D01*
X416941Y786765D02*
X422021Y789305D01*
X413131Y794302D02*
X410591Y797477D01*
X422021Y797477D01*
X422021Y794302D02*
X422021Y800652D01*
D15*
X88900Y619760D02*
X86360Y617220D01*
X-10160Y617220D01*
X-12700Y619760D01*
X88900Y619760D02*
X88900Y648970D01*
X-12700Y648970D02*
X-12700Y619760D01*
D17*
X-8128Y623316D03*
D18*
X-5724Y654048D03*
D19*
X12673Y656584D03*
D20*
X25386Y654039D03*
D21*
X38092Y656583D03*
D22*
X50802Y654047D03*
D23*
X63513Y656584D03*
D24*
X81936Y654042D03*
D16*
X-10888Y611923D02*
X-10888Y600469D01*
X-12161Y600469D02*
X-9615Y600469D01*
X-9615Y611923D02*
X-12161Y611923D01*
X-2400Y600469D02*
X145Y600469D01*
X-2400Y600470D02*
X-2500Y600472D01*
X-2600Y600478D01*
X-2699Y600488D01*
X-2798Y600501D01*
X-2897Y600519D01*
X-2994Y600540D01*
X-3091Y600566D01*
X-3186Y600595D01*
X-3281Y600627D01*
X-3374Y600664D01*
X-3465Y600704D01*
X-3555Y600747D01*
X-3644Y600794D01*
X-3730Y600845D01*
X-3814Y600899D01*
X-3896Y600956D01*
X-3976Y601016D01*
X-4053Y601080D01*
X-4128Y601146D01*
X-4200Y601215D01*
X-4269Y601287D01*
X-4335Y601362D01*
X-4399Y601439D01*
X-4459Y601519D01*
X-4516Y601601D01*
X-4570Y601685D01*
X-4621Y601771D01*
X-4668Y601860D01*
X-4711Y601950D01*
X-4751Y602041D01*
X-4788Y602134D01*
X-4820Y602229D01*
X-4849Y602324D01*
X-4875Y602421D01*
X-4896Y602518D01*
X-4914Y602617D01*
X-4927Y602716D01*
X-4937Y602815D01*
X-4943Y602915D01*
X-4945Y603015D01*
X-4946Y603015D02*
X-4946Y609378D01*
X-4945Y609378D02*
X-4943Y609478D01*
X-4937Y609578D01*
X-4927Y609677D01*
X-4914Y609776D01*
X-4896Y609875D01*
X-4875Y609972D01*
X-4849Y610069D01*
X-4820Y610164D01*
X-4788Y610259D01*
X-4751Y610352D01*
X-4711Y610443D01*
X-4668Y610533D01*
X-4621Y610622D01*
X-4570Y610708D01*
X-4516Y610792D01*
X-4459Y610874D01*
X-4399Y610954D01*
X-4335Y611031D01*
X-4269Y611106D01*
X-4200Y611178D01*
X-4128Y611247D01*
X-4053Y611313D01*
X-3976Y611377D01*
X-3896Y611437D01*
X-3814Y611494D01*
X-3730Y611548D01*
X-3644Y611599D01*
X-3555Y611646D01*
X-3465Y611689D01*
X-3374Y611729D01*
X-3281Y611766D01*
X-3186Y611798D01*
X-3091Y611827D01*
X-2994Y611853D01*
X-2897Y611874D01*
X-2798Y611892D01*
X-2699Y611905D01*
X-2600Y611915D01*
X-2500Y611921D01*
X-2400Y611923D01*
X145Y611923D01*
X4635Y609378D02*
X7816Y611923D01*
X7816Y600469D01*
X4635Y600469D02*
X10998Y600469D01*
D12*
X-20320Y698500D02*
X-20320Y723900D01*
X-20320Y800100D01*
X68580Y800100D01*
X68580Y698500D02*
X-20320Y698500D01*
D13*
X-20320Y723900D02*
X68580Y723900D01*
D12*
X68580Y800100D01*
X68580Y723900D02*
X68580Y698500D01*
D14*
X5588Y762000D03*
X45212Y762000D03*
D15*
X-3057Y812094D02*
X-3059Y811976D01*
X-3065Y811858D01*
X-3074Y811740D01*
X-3088Y811623D01*
X-3105Y811506D01*
X-3126Y811389D01*
X-3151Y811274D01*
X-3180Y811159D01*
X-3213Y811045D01*
X-3249Y810933D01*
X-3289Y810822D01*
X-3332Y810712D01*
X-3379Y810603D01*
X-3429Y810496D01*
X-3484Y810391D01*
X-3541Y810288D01*
X-3602Y810187D01*
X-3666Y810087D01*
X-3733Y809990D01*
X-3803Y809895D01*
X-3877Y809803D01*
X-3953Y809712D01*
X-4033Y809625D01*
X-4115Y809540D01*
X-4200Y809458D01*
X-4287Y809378D01*
X-4378Y809302D01*
X-4470Y809228D01*
X-4565Y809158D01*
X-4662Y809091D01*
X-4762Y809027D01*
X-4863Y808966D01*
X-4966Y808909D01*
X-5071Y808854D01*
X-5178Y808804D01*
X-5287Y808757D01*
X-5397Y808714D01*
X-5508Y808674D01*
X-5620Y808638D01*
X-5734Y808605D01*
X-5849Y808576D01*
X-5964Y808551D01*
X-6081Y808530D01*
X-6198Y808513D01*
X-6315Y808499D01*
X-6433Y808490D01*
X-6551Y808484D01*
X-6669Y808482D01*
X-6852Y808484D01*
X-7034Y808491D01*
X-7216Y808502D01*
X-7398Y808517D01*
X-7580Y808537D01*
X-7761Y808561D01*
X-7941Y808589D01*
X-8121Y808621D01*
X-8300Y808658D01*
X-8477Y808699D01*
X-8654Y808745D01*
X-8830Y808794D01*
X-9005Y808848D01*
X-9178Y808906D01*
X-9349Y808968D01*
X-9520Y809034D01*
X-9688Y809105D01*
X-9855Y809179D01*
X-10020Y809257D01*
X-10183Y809339D01*
X-10344Y809425D01*
X-10503Y809515D01*
X-10660Y809609D01*
X-10814Y809706D01*
X-10966Y809807D01*
X-11116Y809912D01*
X-11263Y810020D01*
X-11407Y810131D01*
X-11549Y810246D01*
X-11688Y810365D01*
X-11824Y810487D01*
X-11957Y810612D01*
X-12087Y810740D01*
X-11636Y821126D02*
X-11634Y821244D01*
X-11628Y821362D01*
X-11619Y821480D01*
X-11605Y821597D01*
X-11588Y821714D01*
X-11567Y821831D01*
X-11542Y821946D01*
X-11513Y822061D01*
X-11480Y822175D01*
X-11444Y822287D01*
X-11404Y822398D01*
X-11361Y822508D01*
X-11314Y822617D01*
X-11264Y822724D01*
X-11209Y822829D01*
X-11152Y822932D01*
X-11091Y823033D01*
X-11027Y823133D01*
X-10960Y823230D01*
X-10890Y823325D01*
X-10816Y823417D01*
X-10740Y823508D01*
X-10660Y823595D01*
X-10578Y823680D01*
X-10493Y823762D01*
X-10406Y823842D01*
X-10315Y823918D01*
X-10223Y823992D01*
X-10128Y824062D01*
X-10031Y824129D01*
X-9931Y824193D01*
X-9830Y824254D01*
X-9727Y824311D01*
X-9622Y824366D01*
X-9515Y824416D01*
X-9406Y824463D01*
X-9296Y824506D01*
X-9185Y824546D01*
X-9073Y824582D01*
X-8959Y824615D01*
X-8844Y824644D01*
X-8729Y824669D01*
X-8612Y824690D01*
X-8495Y824707D01*
X-8378Y824721D01*
X-8260Y824730D01*
X-8142Y824736D01*
X-8024Y824738D01*
X-7863Y824736D01*
X-7701Y824730D01*
X-7540Y824721D01*
X-7379Y824707D01*
X-7219Y824690D01*
X-7059Y824669D01*
X-6899Y824644D01*
X-6740Y824615D01*
X-6582Y824583D01*
X-6425Y824547D01*
X-6269Y824507D01*
X-6113Y824463D01*
X-5959Y824415D01*
X-5806Y824364D01*
X-5654Y824310D01*
X-5503Y824251D01*
X-5354Y824190D01*
X-5207Y824124D01*
X-5061Y824055D01*
X-4916Y823983D01*
X-4774Y823907D01*
X-4633Y823828D01*
X-4494Y823746D01*
X-4358Y823660D01*
X-4223Y823571D01*
X-4090Y823479D01*
X-3960Y823383D01*
X-9830Y817965D02*
X-9931Y818027D01*
X-10031Y818092D01*
X-10128Y818161D01*
X-10223Y818233D01*
X-10316Y818307D01*
X-10406Y818385D01*
X-10494Y818466D01*
X-10579Y818549D01*
X-10661Y818635D01*
X-10740Y818724D01*
X-10817Y818815D01*
X-10890Y818909D01*
X-10961Y819005D01*
X-11028Y819103D01*
X-11092Y819203D01*
X-11153Y819306D01*
X-11210Y819410D01*
X-11264Y819516D01*
X-11314Y819624D01*
X-11361Y819733D01*
X-11405Y819844D01*
X-11445Y819956D01*
X-11481Y820070D01*
X-11513Y820184D01*
X-11542Y820300D01*
X-11567Y820416D01*
X-11588Y820533D01*
X-11605Y820651D01*
X-11619Y820769D01*
X-11628Y820888D01*
X-11634Y821007D01*
X-11636Y821126D01*
X-4862Y815255D02*
X-4761Y815193D01*
X-4661Y815128D01*
X-4564Y815059D01*
X-4469Y814987D01*
X-4376Y814913D01*
X-4286Y814835D01*
X-4198Y814754D01*
X-4113Y814671D01*
X-4031Y814585D01*
X-3952Y814496D01*
X-3875Y814405D01*
X-3802Y814311D01*
X-3731Y814215D01*
X-3664Y814117D01*
X-3600Y814017D01*
X-3539Y813914D01*
X-3482Y813810D01*
X-3428Y813704D01*
X-3378Y813596D01*
X-3331Y813487D01*
X-3287Y813376D01*
X-3247Y813264D01*
X-3211Y813150D01*
X-3179Y813036D01*
X-3150Y812920D01*
X-3125Y812804D01*
X-3104Y812687D01*
X-3087Y812569D01*
X-3073Y812451D01*
X-3064Y812332D01*
X-3058Y812213D01*
X-3056Y812094D01*
X-4863Y815255D02*
X-9830Y817965D01*
X2397Y824738D02*
X6010Y808482D01*
X9622Y819319D01*
X13235Y808482D01*
X16847Y824738D01*
X24211Y824738D02*
X24211Y808482D01*
X22405Y808482D02*
X26018Y808482D01*
X26018Y824738D02*
X22405Y824738D01*
X35674Y824738D02*
X35674Y808482D01*
X31159Y824738D02*
X40190Y824738D01*
X49321Y808482D02*
X52933Y808482D01*
X49321Y808482D02*
X49203Y808484D01*
X49085Y808490D01*
X48967Y808499D01*
X48850Y808513D01*
X48733Y808530D01*
X48616Y808551D01*
X48501Y808576D01*
X48386Y808605D01*
X48272Y808638D01*
X48160Y808674D01*
X48049Y808714D01*
X47939Y808757D01*
X47830Y808804D01*
X47723Y808854D01*
X47618Y808909D01*
X47515Y808966D01*
X47414Y809027D01*
X47314Y809091D01*
X47217Y809158D01*
X47122Y809228D01*
X47030Y809302D01*
X46939Y809378D01*
X46852Y809458D01*
X46767Y809540D01*
X46685Y809625D01*
X46605Y809712D01*
X46529Y809803D01*
X46455Y809895D01*
X46385Y809990D01*
X46318Y810087D01*
X46254Y810187D01*
X46193Y810288D01*
X46136Y810391D01*
X46081Y810496D01*
X46031Y810603D01*
X45984Y810712D01*
X45941Y810822D01*
X45901Y810933D01*
X45865Y811045D01*
X45832Y811159D01*
X45803Y811274D01*
X45778Y811389D01*
X45757Y811506D01*
X45740Y811623D01*
X45726Y811740D01*
X45717Y811858D01*
X45711Y811976D01*
X45709Y812094D01*
X45708Y812094D02*
X45708Y821126D01*
X45709Y821126D02*
X45711Y821244D01*
X45717Y821362D01*
X45726Y821480D01*
X45740Y821597D01*
X45757Y821714D01*
X45778Y821831D01*
X45803Y821946D01*
X45832Y822061D01*
X45865Y822175D01*
X45901Y822287D01*
X45941Y822398D01*
X45984Y822508D01*
X46031Y822617D01*
X46081Y822724D01*
X46135Y822829D01*
X46193Y822932D01*
X46254Y823033D01*
X46318Y823133D01*
X46385Y823230D01*
X46455Y823325D01*
X46529Y823417D01*
X46605Y823508D01*
X46685Y823595D01*
X46767Y823680D01*
X46852Y823762D01*
X46939Y823842D01*
X47030Y823918D01*
X47122Y823992D01*
X47217Y824062D01*
X47314Y824129D01*
X47414Y824193D01*
X47515Y824254D01*
X47618Y824311D01*
X47723Y824365D01*
X47830Y824416D01*
X47939Y824463D01*
X48049Y824506D01*
X48160Y824546D01*
X48272Y824582D01*
X48386Y824615D01*
X48501Y824644D01*
X48616Y824669D01*
X48733Y824690D01*
X48850Y824707D01*
X48967Y824721D01*
X49085Y824730D01*
X49203Y824736D01*
X49321Y824738D01*
X52933Y824738D01*
X59295Y824738D02*
X59295Y808482D01*
X59295Y817513D02*
X68326Y817513D01*
X68326Y824738D02*
X68326Y808482D01*
M02*
