G04 EAGLE Gerber RS-274X export*
G75*
%MOMM*%
%FSLAX34Y34*%
%LPD*%
%INTop Copper*%
%IPPOS*%
%AMOC8*
5,1,8,0,0,1.08239X$1,22.5*%
G01*
%ADD10C,0.130000*%
%ADD11C,0.152400*%
%ADD12C,1.665000*%
%ADD13R,1.665000X1.665000*%
%ADD14C,2.514600*%
%ADD15C,1.524000*%
%ADD16P,1.429621X8X112.500000*%
%ADD17P,1.429621X8X202.500000*%
%ADD18P,1.429621X8X292.500000*%
%ADD19C,1.016000*%


D10*
X-38100Y546100D02*
X-38100Y475800D01*
X545900Y475800D02*
X545900Y546100D01*
X545250Y495300D02*
X-37450Y495300D01*
X-12100Y498492D01*
X-12100Y492108D01*
X-37450Y495300D01*
X-12100Y496600D01*
X-12100Y494000D02*
X-37450Y495300D01*
X-12100Y497900D01*
X-12100Y492700D02*
X-37450Y495300D01*
X519900Y498492D02*
X545250Y495300D01*
X519900Y498492D02*
X519900Y492108D01*
X545250Y495300D01*
X519900Y496600D01*
X519900Y494000D02*
X545250Y495300D01*
X519900Y497900D01*
X519900Y492700D02*
X545250Y495300D01*
D11*
X228171Y501807D02*
X222752Y501807D01*
X228171Y501807D02*
X228289Y501809D01*
X228407Y501815D01*
X228525Y501824D01*
X228642Y501838D01*
X228759Y501855D01*
X228876Y501876D01*
X228991Y501901D01*
X229106Y501930D01*
X229220Y501963D01*
X229332Y501999D01*
X229443Y502039D01*
X229553Y502082D01*
X229662Y502129D01*
X229769Y502179D01*
X229874Y502234D01*
X229977Y502291D01*
X230078Y502352D01*
X230178Y502416D01*
X230275Y502483D01*
X230370Y502553D01*
X230462Y502627D01*
X230553Y502703D01*
X230640Y502783D01*
X230725Y502865D01*
X230807Y502950D01*
X230887Y503037D01*
X230963Y503128D01*
X231037Y503220D01*
X231107Y503315D01*
X231174Y503412D01*
X231238Y503512D01*
X231299Y503613D01*
X231356Y503716D01*
X231411Y503821D01*
X231461Y503928D01*
X231508Y504037D01*
X231551Y504147D01*
X231591Y504258D01*
X231627Y504370D01*
X231660Y504484D01*
X231689Y504599D01*
X231714Y504714D01*
X231735Y504831D01*
X231752Y504948D01*
X231766Y505065D01*
X231775Y505183D01*
X231781Y505301D01*
X231783Y505419D01*
X231783Y507226D01*
X231781Y507344D01*
X231775Y507462D01*
X231766Y507580D01*
X231752Y507697D01*
X231735Y507814D01*
X231714Y507931D01*
X231689Y508046D01*
X231660Y508161D01*
X231627Y508275D01*
X231591Y508387D01*
X231551Y508498D01*
X231508Y508608D01*
X231461Y508717D01*
X231411Y508824D01*
X231356Y508929D01*
X231299Y509032D01*
X231238Y509133D01*
X231174Y509233D01*
X231107Y509330D01*
X231037Y509425D01*
X230963Y509517D01*
X230887Y509608D01*
X230807Y509695D01*
X230725Y509780D01*
X230640Y509862D01*
X230553Y509942D01*
X230462Y510018D01*
X230370Y510092D01*
X230275Y510162D01*
X230178Y510229D01*
X230078Y510293D01*
X229977Y510354D01*
X229874Y510411D01*
X229769Y510466D01*
X229662Y510516D01*
X229553Y510563D01*
X229443Y510606D01*
X229332Y510646D01*
X229220Y510682D01*
X229106Y510715D01*
X228991Y510744D01*
X228876Y510769D01*
X228759Y510790D01*
X228642Y510807D01*
X228525Y510821D01*
X228407Y510830D01*
X228289Y510836D01*
X228171Y510838D01*
X222752Y510838D01*
X222752Y518063D01*
X231783Y518063D01*
X238383Y506323D02*
X238385Y506456D01*
X238391Y506588D01*
X238401Y506720D01*
X238414Y506852D01*
X238432Y506984D01*
X238453Y507114D01*
X238478Y507245D01*
X238507Y507374D01*
X238540Y507502D01*
X238576Y507630D01*
X238616Y507756D01*
X238660Y507881D01*
X238708Y508005D01*
X238759Y508127D01*
X238814Y508248D01*
X238872Y508367D01*
X238934Y508485D01*
X238999Y508600D01*
X239068Y508714D01*
X239139Y508825D01*
X239215Y508934D01*
X239293Y509041D01*
X239374Y509146D01*
X239459Y509248D01*
X239546Y509348D01*
X239636Y509445D01*
X239729Y509540D01*
X239825Y509631D01*
X239923Y509720D01*
X240024Y509806D01*
X240128Y509889D01*
X240234Y509969D01*
X240342Y510045D01*
X240452Y510119D01*
X240565Y510189D01*
X240679Y510256D01*
X240796Y510319D01*
X240914Y510379D01*
X241034Y510436D01*
X241156Y510489D01*
X241279Y510538D01*
X241403Y510584D01*
X241529Y510626D01*
X241656Y510664D01*
X241784Y510699D01*
X241913Y510730D01*
X242042Y510757D01*
X242173Y510780D01*
X242304Y510800D01*
X242436Y510815D01*
X242568Y510827D01*
X242700Y510835D01*
X242833Y510839D01*
X242965Y510839D01*
X243098Y510835D01*
X243230Y510827D01*
X243362Y510815D01*
X243494Y510800D01*
X243625Y510780D01*
X243756Y510757D01*
X243885Y510730D01*
X244014Y510699D01*
X244142Y510664D01*
X244269Y510626D01*
X244395Y510584D01*
X244519Y510538D01*
X244642Y510489D01*
X244764Y510436D01*
X244884Y510379D01*
X245002Y510319D01*
X245119Y510256D01*
X245233Y510189D01*
X245346Y510119D01*
X245456Y510045D01*
X245564Y509969D01*
X245670Y509889D01*
X245774Y509806D01*
X245875Y509720D01*
X245973Y509631D01*
X246069Y509540D01*
X246162Y509445D01*
X246252Y509348D01*
X246339Y509248D01*
X246424Y509146D01*
X246505Y509041D01*
X246583Y508934D01*
X246659Y508825D01*
X246730Y508714D01*
X246799Y508600D01*
X246864Y508485D01*
X246926Y508367D01*
X246984Y508248D01*
X247039Y508127D01*
X247090Y508005D01*
X247138Y507881D01*
X247182Y507756D01*
X247222Y507630D01*
X247258Y507502D01*
X247291Y507374D01*
X247320Y507245D01*
X247345Y507114D01*
X247366Y506984D01*
X247384Y506852D01*
X247397Y506720D01*
X247407Y506588D01*
X247413Y506456D01*
X247415Y506323D01*
X247413Y506190D01*
X247407Y506058D01*
X247397Y505926D01*
X247384Y505794D01*
X247366Y505662D01*
X247345Y505532D01*
X247320Y505401D01*
X247291Y505272D01*
X247258Y505144D01*
X247222Y505016D01*
X247182Y504890D01*
X247138Y504765D01*
X247090Y504641D01*
X247039Y504519D01*
X246984Y504398D01*
X246926Y504279D01*
X246864Y504161D01*
X246799Y504046D01*
X246730Y503932D01*
X246659Y503821D01*
X246583Y503712D01*
X246505Y503605D01*
X246424Y503500D01*
X246339Y503398D01*
X246252Y503298D01*
X246162Y503201D01*
X246069Y503106D01*
X245973Y503015D01*
X245875Y502926D01*
X245774Y502840D01*
X245670Y502757D01*
X245564Y502677D01*
X245456Y502601D01*
X245346Y502527D01*
X245233Y502457D01*
X245119Y502390D01*
X245002Y502327D01*
X244884Y502267D01*
X244764Y502210D01*
X244642Y502157D01*
X244519Y502108D01*
X244395Y502062D01*
X244269Y502020D01*
X244142Y501982D01*
X244014Y501947D01*
X243885Y501916D01*
X243756Y501889D01*
X243625Y501866D01*
X243494Y501846D01*
X243362Y501831D01*
X243230Y501819D01*
X243098Y501811D01*
X242965Y501807D01*
X242833Y501807D01*
X242700Y501811D01*
X242568Y501819D01*
X242436Y501831D01*
X242304Y501846D01*
X242173Y501866D01*
X242042Y501889D01*
X241913Y501916D01*
X241784Y501947D01*
X241656Y501982D01*
X241529Y502020D01*
X241403Y502062D01*
X241279Y502108D01*
X241156Y502157D01*
X241034Y502210D01*
X240914Y502267D01*
X240796Y502327D01*
X240679Y502390D01*
X240565Y502457D01*
X240452Y502527D01*
X240342Y502601D01*
X240234Y502677D01*
X240128Y502757D01*
X240024Y502840D01*
X239923Y502926D01*
X239825Y503015D01*
X239729Y503106D01*
X239636Y503201D01*
X239546Y503298D01*
X239459Y503398D01*
X239374Y503500D01*
X239293Y503605D01*
X239215Y503712D01*
X239139Y503821D01*
X239068Y503932D01*
X238999Y504046D01*
X238934Y504161D01*
X238872Y504279D01*
X238814Y504398D01*
X238759Y504519D01*
X238708Y504641D01*
X238660Y504765D01*
X238616Y504890D01*
X238576Y505016D01*
X238540Y505144D01*
X238507Y505272D01*
X238478Y505401D01*
X238453Y505532D01*
X238432Y505662D01*
X238414Y505794D01*
X238401Y505926D01*
X238391Y506058D01*
X238385Y506190D01*
X238383Y506323D01*
X239287Y514451D02*
X239289Y514570D01*
X239295Y514690D01*
X239305Y514809D01*
X239319Y514927D01*
X239336Y515046D01*
X239358Y515163D01*
X239383Y515280D01*
X239413Y515395D01*
X239446Y515510D01*
X239483Y515624D01*
X239523Y515736D01*
X239568Y515847D01*
X239616Y515956D01*
X239667Y516064D01*
X239722Y516170D01*
X239781Y516274D01*
X239843Y516376D01*
X239908Y516476D01*
X239977Y516574D01*
X240049Y516670D01*
X240124Y516763D01*
X240201Y516853D01*
X240282Y516941D01*
X240366Y517026D01*
X240453Y517108D01*
X240542Y517188D01*
X240634Y517264D01*
X240728Y517338D01*
X240825Y517408D01*
X240923Y517475D01*
X241024Y517539D01*
X241128Y517599D01*
X241233Y517656D01*
X241340Y517709D01*
X241448Y517759D01*
X241558Y517805D01*
X241670Y517847D01*
X241783Y517886D01*
X241897Y517921D01*
X242012Y517952D01*
X242129Y517980D01*
X242246Y518003D01*
X242363Y518023D01*
X242482Y518039D01*
X242601Y518051D01*
X242720Y518059D01*
X242839Y518063D01*
X242959Y518063D01*
X243078Y518059D01*
X243197Y518051D01*
X243316Y518039D01*
X243435Y518023D01*
X243552Y518003D01*
X243669Y517980D01*
X243786Y517952D01*
X243901Y517921D01*
X244015Y517886D01*
X244128Y517847D01*
X244240Y517805D01*
X244350Y517759D01*
X244458Y517709D01*
X244565Y517656D01*
X244670Y517599D01*
X244774Y517539D01*
X244875Y517475D01*
X244973Y517408D01*
X245070Y517338D01*
X245164Y517264D01*
X245256Y517188D01*
X245345Y517108D01*
X245432Y517026D01*
X245516Y516941D01*
X245597Y516853D01*
X245674Y516763D01*
X245749Y516670D01*
X245821Y516574D01*
X245890Y516476D01*
X245955Y516376D01*
X246017Y516274D01*
X246076Y516170D01*
X246131Y516064D01*
X246182Y515956D01*
X246230Y515847D01*
X246275Y515736D01*
X246315Y515624D01*
X246352Y515510D01*
X246385Y515395D01*
X246415Y515280D01*
X246440Y515163D01*
X246462Y515046D01*
X246479Y514927D01*
X246493Y514809D01*
X246503Y514690D01*
X246509Y514570D01*
X246511Y514451D01*
X246509Y514332D01*
X246503Y514212D01*
X246493Y514093D01*
X246479Y513975D01*
X246462Y513856D01*
X246440Y513739D01*
X246415Y513622D01*
X246385Y513507D01*
X246352Y513392D01*
X246315Y513278D01*
X246275Y513166D01*
X246230Y513055D01*
X246182Y512946D01*
X246131Y512838D01*
X246076Y512732D01*
X246017Y512628D01*
X245955Y512526D01*
X245890Y512426D01*
X245821Y512328D01*
X245749Y512232D01*
X245674Y512139D01*
X245597Y512049D01*
X245516Y511961D01*
X245432Y511876D01*
X245345Y511794D01*
X245256Y511714D01*
X245164Y511638D01*
X245070Y511564D01*
X244973Y511494D01*
X244875Y511427D01*
X244774Y511363D01*
X244670Y511303D01*
X244565Y511246D01*
X244458Y511193D01*
X244350Y511143D01*
X244240Y511097D01*
X244128Y511055D01*
X244015Y511016D01*
X243901Y510981D01*
X243786Y510950D01*
X243669Y510922D01*
X243552Y510899D01*
X243435Y510879D01*
X243316Y510863D01*
X243197Y510851D01*
X243078Y510843D01*
X242959Y510839D01*
X242839Y510839D01*
X242720Y510843D01*
X242601Y510851D01*
X242482Y510863D01*
X242363Y510879D01*
X242246Y510899D01*
X242129Y510922D01*
X242012Y510950D01*
X241897Y510981D01*
X241783Y511016D01*
X241670Y511055D01*
X241558Y511097D01*
X241448Y511143D01*
X241340Y511193D01*
X241233Y511246D01*
X241128Y511303D01*
X241024Y511363D01*
X240923Y511427D01*
X240825Y511494D01*
X240728Y511564D01*
X240634Y511638D01*
X240542Y511714D01*
X240453Y511794D01*
X240366Y511876D01*
X240282Y511961D01*
X240201Y512049D01*
X240124Y512139D01*
X240049Y512232D01*
X239977Y512328D01*
X239908Y512426D01*
X239843Y512526D01*
X239781Y512628D01*
X239722Y512732D01*
X239667Y512838D01*
X239616Y512946D01*
X239568Y513055D01*
X239523Y513166D01*
X239483Y513278D01*
X239446Y513392D01*
X239413Y513507D01*
X239383Y513622D01*
X239358Y513739D01*
X239336Y513856D01*
X239319Y513975D01*
X239305Y514093D01*
X239295Y514212D01*
X239289Y514332D01*
X239287Y514451D01*
X253389Y502710D02*
X253389Y501807D01*
X253389Y502710D02*
X254292Y502710D01*
X254292Y501807D01*
X253389Y501807D01*
X260267Y505419D02*
X263879Y518063D01*
X260267Y505419D02*
X269298Y505419D01*
X266589Y509032D02*
X266589Y501807D01*
X275898Y509935D02*
X275902Y510255D01*
X275913Y510574D01*
X275932Y510894D01*
X275959Y511212D01*
X275993Y511530D01*
X276035Y511847D01*
X276085Y512163D01*
X276142Y512478D01*
X276206Y512791D01*
X276278Y513103D01*
X276357Y513413D01*
X276444Y513720D01*
X276538Y514026D01*
X276639Y514329D01*
X276748Y514630D01*
X276863Y514928D01*
X276986Y515224D01*
X277116Y515516D01*
X277253Y515805D01*
X277253Y515806D02*
X277292Y515914D01*
X277335Y516021D01*
X277381Y516126D01*
X277432Y516230D01*
X277485Y516332D01*
X277542Y516432D01*
X277603Y516530D01*
X277667Y516625D01*
X277734Y516719D01*
X277805Y516810D01*
X277878Y516899D01*
X277955Y516985D01*
X278034Y517068D01*
X278116Y517149D01*
X278201Y517227D01*
X278289Y517301D01*
X278379Y517373D01*
X278471Y517441D01*
X278566Y517507D01*
X278663Y517569D01*
X278762Y517627D01*
X278864Y517683D01*
X278966Y517734D01*
X279071Y517782D01*
X279177Y517827D01*
X279285Y517868D01*
X279394Y517905D01*
X279504Y517938D01*
X279616Y517967D01*
X279728Y517993D01*
X279841Y518015D01*
X279955Y518032D01*
X280069Y518046D01*
X280184Y518056D01*
X280299Y518062D01*
X280414Y518064D01*
X280414Y518063D02*
X280529Y518061D01*
X280644Y518055D01*
X280759Y518045D01*
X280873Y518031D01*
X280987Y518014D01*
X281100Y517992D01*
X281212Y517966D01*
X281324Y517937D01*
X281434Y517904D01*
X281543Y517867D01*
X281651Y517826D01*
X281757Y517781D01*
X281862Y517733D01*
X281964Y517682D01*
X282065Y517626D01*
X282165Y517568D01*
X282262Y517506D01*
X282356Y517441D01*
X282449Y517372D01*
X282539Y517300D01*
X282627Y517226D01*
X282712Y517148D01*
X282794Y517067D01*
X282873Y516984D01*
X282950Y516898D01*
X283023Y516809D01*
X283094Y516718D01*
X283161Y516624D01*
X283225Y516529D01*
X283286Y516431D01*
X283343Y516331D01*
X283396Y516229D01*
X283447Y516125D01*
X283493Y516020D01*
X283536Y515913D01*
X283575Y515805D01*
X283574Y515805D02*
X283711Y515516D01*
X283841Y515224D01*
X283964Y514928D01*
X284079Y514630D01*
X284188Y514329D01*
X284289Y514026D01*
X284383Y513720D01*
X284470Y513413D01*
X284549Y513103D01*
X284621Y512791D01*
X284685Y512478D01*
X284742Y512163D01*
X284792Y511847D01*
X284834Y511530D01*
X284868Y511212D01*
X284895Y510894D01*
X284914Y510574D01*
X284925Y510255D01*
X284929Y509935D01*
X275898Y509935D02*
X275902Y509615D01*
X275913Y509296D01*
X275932Y508976D01*
X275959Y508658D01*
X275993Y508340D01*
X276035Y508023D01*
X276085Y507707D01*
X276142Y507392D01*
X276206Y507079D01*
X276278Y506767D01*
X276357Y506457D01*
X276444Y506150D01*
X276538Y505844D01*
X276639Y505541D01*
X276748Y505240D01*
X276863Y504942D01*
X276986Y504646D01*
X277116Y504354D01*
X277253Y504065D01*
X277292Y503957D01*
X277335Y503850D01*
X277381Y503745D01*
X277432Y503641D01*
X277485Y503539D01*
X277542Y503439D01*
X277603Y503341D01*
X277667Y503246D01*
X277734Y503152D01*
X277805Y503061D01*
X277878Y502972D01*
X277955Y502886D01*
X278034Y502803D01*
X278116Y502722D01*
X278201Y502644D01*
X278289Y502570D01*
X278379Y502498D01*
X278472Y502429D01*
X278566Y502364D01*
X278663Y502302D01*
X278763Y502244D01*
X278864Y502188D01*
X278966Y502137D01*
X279071Y502089D01*
X279177Y502044D01*
X279285Y502003D01*
X279394Y501966D01*
X279504Y501933D01*
X279616Y501904D01*
X279728Y501878D01*
X279841Y501856D01*
X279955Y501839D01*
X280069Y501825D01*
X280184Y501815D01*
X280299Y501809D01*
X280414Y501807D01*
X283574Y504065D02*
X283711Y504354D01*
X283841Y504646D01*
X283964Y504942D01*
X284079Y505240D01*
X284188Y505541D01*
X284289Y505844D01*
X284383Y506150D01*
X284470Y506457D01*
X284549Y506767D01*
X284621Y507079D01*
X284685Y507392D01*
X284742Y507707D01*
X284792Y508023D01*
X284834Y508340D01*
X284868Y508658D01*
X284895Y508976D01*
X284914Y509296D01*
X284925Y509615D01*
X284929Y509935D01*
X283575Y504065D02*
X283536Y503957D01*
X283493Y503850D01*
X283447Y503745D01*
X283396Y503641D01*
X283343Y503539D01*
X283286Y503439D01*
X283225Y503341D01*
X283161Y503246D01*
X283094Y503152D01*
X283023Y503061D01*
X282950Y502972D01*
X282873Y502886D01*
X282794Y502803D01*
X282712Y502722D01*
X282627Y502644D01*
X282539Y502570D01*
X282449Y502498D01*
X282356Y502429D01*
X282262Y502364D01*
X282165Y502302D01*
X282065Y502244D01*
X281964Y502188D01*
X281861Y502137D01*
X281757Y502089D01*
X281651Y502044D01*
X281543Y502003D01*
X281434Y501966D01*
X281324Y501933D01*
X281212Y501904D01*
X281100Y501878D01*
X280987Y501856D01*
X280873Y501839D01*
X280759Y501825D01*
X280644Y501815D01*
X280529Y501809D01*
X280414Y501807D01*
X276801Y505419D02*
X284026Y514451D01*
D10*
X-38100Y1000000D02*
X-108400Y1000000D01*
X-108400Y546100D02*
X-38100Y546100D01*
X-88900Y546750D02*
X-88900Y999350D01*
X-92092Y974000D01*
X-85708Y974000D01*
X-88900Y999350D01*
X-90200Y974000D01*
X-87600Y974000D02*
X-88900Y999350D01*
X-91500Y974000D01*
X-86300Y974000D02*
X-88900Y999350D01*
X-92092Y572100D02*
X-88900Y546750D01*
X-92092Y572100D02*
X-85708Y572100D01*
X-88900Y546750D01*
X-90200Y572100D01*
X-87600Y572100D02*
X-88900Y546750D01*
X-91500Y572100D01*
X-86300Y572100D02*
X-88900Y546750D01*
D11*
X-99019Y741902D02*
X-111663Y745514D01*
X-99019Y741902D02*
X-99019Y750933D01*
X-102632Y748224D02*
X-95407Y748224D01*
X-95407Y757533D02*
X-95407Y762952D01*
X-95409Y763070D01*
X-95415Y763188D01*
X-95424Y763306D01*
X-95438Y763423D01*
X-95455Y763540D01*
X-95476Y763657D01*
X-95501Y763772D01*
X-95530Y763887D01*
X-95563Y764001D01*
X-95599Y764113D01*
X-95639Y764224D01*
X-95682Y764334D01*
X-95729Y764443D01*
X-95779Y764550D01*
X-95834Y764655D01*
X-95891Y764758D01*
X-95952Y764859D01*
X-96016Y764959D01*
X-96083Y765056D01*
X-96153Y765151D01*
X-96227Y765243D01*
X-96303Y765334D01*
X-96383Y765421D01*
X-96465Y765506D01*
X-96550Y765588D01*
X-96637Y765668D01*
X-96728Y765744D01*
X-96820Y765818D01*
X-96915Y765888D01*
X-97012Y765955D01*
X-97112Y766019D01*
X-97213Y766080D01*
X-97316Y766137D01*
X-97421Y766192D01*
X-97528Y766242D01*
X-97637Y766289D01*
X-97747Y766332D01*
X-97858Y766372D01*
X-97970Y766408D01*
X-98084Y766441D01*
X-98199Y766470D01*
X-98314Y766495D01*
X-98431Y766516D01*
X-98548Y766533D01*
X-98665Y766547D01*
X-98783Y766556D01*
X-98901Y766562D01*
X-99019Y766564D01*
X-100826Y766564D01*
X-100944Y766562D01*
X-101062Y766556D01*
X-101180Y766547D01*
X-101297Y766533D01*
X-101414Y766516D01*
X-101531Y766495D01*
X-101646Y766470D01*
X-101761Y766441D01*
X-101875Y766408D01*
X-101987Y766372D01*
X-102098Y766332D01*
X-102208Y766289D01*
X-102317Y766242D01*
X-102424Y766192D01*
X-102529Y766137D01*
X-102632Y766080D01*
X-102733Y766019D01*
X-102833Y765955D01*
X-102930Y765888D01*
X-103025Y765818D01*
X-103117Y765744D01*
X-103208Y765668D01*
X-103295Y765588D01*
X-103380Y765506D01*
X-103462Y765421D01*
X-103542Y765334D01*
X-103618Y765243D01*
X-103692Y765151D01*
X-103762Y765056D01*
X-103829Y764959D01*
X-103893Y764859D01*
X-103954Y764758D01*
X-104011Y764655D01*
X-104066Y764550D01*
X-104116Y764443D01*
X-104163Y764334D01*
X-104206Y764224D01*
X-104246Y764113D01*
X-104282Y764001D01*
X-104315Y763887D01*
X-104344Y763772D01*
X-104369Y763657D01*
X-104390Y763540D01*
X-104407Y763423D01*
X-104421Y763306D01*
X-104430Y763188D01*
X-104436Y763070D01*
X-104438Y762952D01*
X-104438Y757533D01*
X-111663Y757533D01*
X-111663Y766564D01*
X-96310Y772539D02*
X-95407Y772539D01*
X-96310Y772539D02*
X-96310Y773442D01*
X-95407Y773442D01*
X-95407Y772539D01*
X-95407Y779417D02*
X-95407Y783932D01*
X-95409Y784065D01*
X-95415Y784197D01*
X-95425Y784329D01*
X-95438Y784461D01*
X-95456Y784593D01*
X-95477Y784723D01*
X-95502Y784854D01*
X-95531Y784983D01*
X-95564Y785111D01*
X-95600Y785239D01*
X-95640Y785365D01*
X-95684Y785490D01*
X-95732Y785614D01*
X-95783Y785736D01*
X-95838Y785857D01*
X-95896Y785976D01*
X-95958Y786094D01*
X-96023Y786209D01*
X-96092Y786323D01*
X-96163Y786434D01*
X-96239Y786543D01*
X-96317Y786650D01*
X-96398Y786755D01*
X-96483Y786857D01*
X-96570Y786957D01*
X-96660Y787054D01*
X-96753Y787149D01*
X-96849Y787240D01*
X-96947Y787329D01*
X-97048Y787415D01*
X-97152Y787498D01*
X-97258Y787578D01*
X-97366Y787654D01*
X-97476Y787728D01*
X-97589Y787798D01*
X-97703Y787865D01*
X-97820Y787928D01*
X-97938Y787988D01*
X-98058Y788045D01*
X-98180Y788098D01*
X-98303Y788147D01*
X-98427Y788193D01*
X-98553Y788235D01*
X-98680Y788273D01*
X-98808Y788308D01*
X-98937Y788339D01*
X-99066Y788366D01*
X-99197Y788389D01*
X-99328Y788409D01*
X-99460Y788424D01*
X-99592Y788436D01*
X-99724Y788444D01*
X-99857Y788448D01*
X-99989Y788448D01*
X-100122Y788444D01*
X-100254Y788436D01*
X-100386Y788424D01*
X-100518Y788409D01*
X-100649Y788389D01*
X-100780Y788366D01*
X-100909Y788339D01*
X-101038Y788308D01*
X-101166Y788273D01*
X-101293Y788235D01*
X-101419Y788193D01*
X-101543Y788147D01*
X-101666Y788098D01*
X-101788Y788045D01*
X-101908Y787988D01*
X-102026Y787928D01*
X-102143Y787865D01*
X-102257Y787798D01*
X-102370Y787728D01*
X-102480Y787654D01*
X-102588Y787578D01*
X-102694Y787498D01*
X-102798Y787415D01*
X-102899Y787329D01*
X-102997Y787240D01*
X-103093Y787149D01*
X-103186Y787054D01*
X-103276Y786957D01*
X-103363Y786857D01*
X-103448Y786755D01*
X-103529Y786650D01*
X-103607Y786543D01*
X-103683Y786434D01*
X-103754Y786323D01*
X-103823Y786209D01*
X-103888Y786094D01*
X-103950Y785976D01*
X-104008Y785857D01*
X-104063Y785736D01*
X-104114Y785614D01*
X-104162Y785490D01*
X-104206Y785365D01*
X-104246Y785239D01*
X-104282Y785111D01*
X-104315Y784983D01*
X-104344Y784854D01*
X-104369Y784723D01*
X-104390Y784593D01*
X-104408Y784461D01*
X-104421Y784329D01*
X-104431Y784197D01*
X-104437Y784065D01*
X-104439Y783932D01*
X-111663Y784836D02*
X-111663Y779417D01*
X-111663Y784836D02*
X-111661Y784955D01*
X-111655Y785075D01*
X-111645Y785194D01*
X-111631Y785312D01*
X-111614Y785431D01*
X-111592Y785548D01*
X-111567Y785665D01*
X-111537Y785780D01*
X-111504Y785895D01*
X-111467Y786009D01*
X-111427Y786121D01*
X-111382Y786232D01*
X-111334Y786341D01*
X-111283Y786449D01*
X-111228Y786555D01*
X-111169Y786659D01*
X-111107Y786761D01*
X-111042Y786861D01*
X-110973Y786959D01*
X-110901Y787055D01*
X-110826Y787148D01*
X-110749Y787238D01*
X-110668Y787326D01*
X-110584Y787411D01*
X-110497Y787493D01*
X-110408Y787573D01*
X-110316Y787649D01*
X-110222Y787723D01*
X-110125Y787793D01*
X-110027Y787860D01*
X-109926Y787924D01*
X-109822Y787984D01*
X-109717Y788041D01*
X-109610Y788094D01*
X-109502Y788144D01*
X-109392Y788190D01*
X-109280Y788232D01*
X-109167Y788271D01*
X-109053Y788306D01*
X-108938Y788337D01*
X-108821Y788365D01*
X-108704Y788388D01*
X-108587Y788408D01*
X-108468Y788424D01*
X-108349Y788436D01*
X-108230Y788444D01*
X-108111Y788448D01*
X-107991Y788448D01*
X-107872Y788444D01*
X-107753Y788436D01*
X-107634Y788424D01*
X-107515Y788408D01*
X-107398Y788388D01*
X-107281Y788365D01*
X-107164Y788337D01*
X-107049Y788306D01*
X-106935Y788271D01*
X-106822Y788232D01*
X-106710Y788190D01*
X-106600Y788144D01*
X-106492Y788094D01*
X-106385Y788041D01*
X-106280Y787984D01*
X-106176Y787924D01*
X-106075Y787860D01*
X-105977Y787793D01*
X-105880Y787723D01*
X-105786Y787649D01*
X-105694Y787573D01*
X-105605Y787493D01*
X-105518Y787411D01*
X-105434Y787326D01*
X-105353Y787238D01*
X-105276Y787148D01*
X-105201Y787055D01*
X-105129Y786959D01*
X-105060Y786861D01*
X-104995Y786761D01*
X-104933Y786659D01*
X-104874Y786555D01*
X-104819Y786449D01*
X-104768Y786341D01*
X-104720Y786232D01*
X-104675Y786121D01*
X-104635Y786009D01*
X-104598Y785895D01*
X-104565Y785780D01*
X-104535Y785665D01*
X-104510Y785548D01*
X-104488Y785431D01*
X-104471Y785312D01*
X-104457Y785194D01*
X-104447Y785075D01*
X-104441Y784955D01*
X-104439Y784836D01*
X-104438Y784836D02*
X-104438Y781223D01*
X-102632Y798661D02*
X-102632Y804079D01*
X-102632Y798661D02*
X-102634Y798543D01*
X-102640Y798425D01*
X-102649Y798307D01*
X-102663Y798190D01*
X-102680Y798073D01*
X-102701Y797956D01*
X-102726Y797841D01*
X-102755Y797726D01*
X-102788Y797612D01*
X-102824Y797500D01*
X-102864Y797389D01*
X-102907Y797279D01*
X-102954Y797170D01*
X-103004Y797063D01*
X-103059Y796958D01*
X-103116Y796855D01*
X-103177Y796754D01*
X-103241Y796654D01*
X-103308Y796557D01*
X-103378Y796462D01*
X-103452Y796370D01*
X-103528Y796279D01*
X-103608Y796192D01*
X-103690Y796107D01*
X-103775Y796025D01*
X-103862Y795945D01*
X-103953Y795869D01*
X-104045Y795795D01*
X-104140Y795725D01*
X-104237Y795658D01*
X-104337Y795594D01*
X-104438Y795533D01*
X-104541Y795476D01*
X-104646Y795421D01*
X-104753Y795371D01*
X-104862Y795324D01*
X-104972Y795281D01*
X-105083Y795241D01*
X-105195Y795205D01*
X-105309Y795172D01*
X-105424Y795143D01*
X-105539Y795118D01*
X-105656Y795097D01*
X-105773Y795080D01*
X-105890Y795066D01*
X-106008Y795057D01*
X-106126Y795051D01*
X-106244Y795049D01*
X-106244Y795048D02*
X-107147Y795048D01*
X-107280Y795050D01*
X-107412Y795056D01*
X-107544Y795066D01*
X-107676Y795079D01*
X-107808Y795097D01*
X-107938Y795118D01*
X-108069Y795143D01*
X-108198Y795172D01*
X-108326Y795205D01*
X-108454Y795241D01*
X-108580Y795281D01*
X-108705Y795325D01*
X-108829Y795373D01*
X-108951Y795424D01*
X-109072Y795479D01*
X-109191Y795537D01*
X-109309Y795599D01*
X-109424Y795664D01*
X-109538Y795733D01*
X-109649Y795804D01*
X-109758Y795880D01*
X-109865Y795958D01*
X-109970Y796039D01*
X-110072Y796124D01*
X-110172Y796211D01*
X-110269Y796301D01*
X-110364Y796394D01*
X-110455Y796490D01*
X-110544Y796588D01*
X-110630Y796689D01*
X-110713Y796793D01*
X-110793Y796899D01*
X-110869Y797007D01*
X-110943Y797117D01*
X-111013Y797230D01*
X-111080Y797344D01*
X-111143Y797461D01*
X-111203Y797579D01*
X-111260Y797699D01*
X-111313Y797821D01*
X-111362Y797944D01*
X-111408Y798068D01*
X-111450Y798194D01*
X-111488Y798321D01*
X-111523Y798449D01*
X-111554Y798578D01*
X-111581Y798707D01*
X-111604Y798838D01*
X-111624Y798969D01*
X-111639Y799101D01*
X-111651Y799233D01*
X-111659Y799365D01*
X-111663Y799498D01*
X-111663Y799630D01*
X-111659Y799763D01*
X-111651Y799895D01*
X-111639Y800027D01*
X-111624Y800159D01*
X-111604Y800290D01*
X-111581Y800421D01*
X-111554Y800550D01*
X-111523Y800679D01*
X-111488Y800807D01*
X-111450Y800934D01*
X-111408Y801060D01*
X-111362Y801184D01*
X-111313Y801307D01*
X-111260Y801429D01*
X-111203Y801549D01*
X-111143Y801667D01*
X-111080Y801784D01*
X-111013Y801898D01*
X-110943Y802011D01*
X-110869Y802121D01*
X-110793Y802229D01*
X-110713Y802335D01*
X-110630Y802439D01*
X-110544Y802540D01*
X-110455Y802638D01*
X-110364Y802734D01*
X-110269Y802827D01*
X-110172Y802917D01*
X-110072Y803004D01*
X-109970Y803089D01*
X-109865Y803170D01*
X-109758Y803248D01*
X-109649Y803324D01*
X-109538Y803395D01*
X-109424Y803464D01*
X-109309Y803529D01*
X-109191Y803591D01*
X-109072Y803649D01*
X-108951Y803704D01*
X-108829Y803755D01*
X-108705Y803803D01*
X-108580Y803847D01*
X-108454Y803887D01*
X-108326Y803923D01*
X-108198Y803956D01*
X-108069Y803985D01*
X-107938Y804010D01*
X-107808Y804031D01*
X-107676Y804049D01*
X-107544Y804062D01*
X-107412Y804072D01*
X-107280Y804078D01*
X-107147Y804080D01*
X-107147Y804079D02*
X-102632Y804079D01*
X-102457Y804077D01*
X-102283Y804071D01*
X-102109Y804060D01*
X-101935Y804045D01*
X-101761Y804026D01*
X-101588Y804003D01*
X-101416Y803976D01*
X-101244Y803944D01*
X-101073Y803909D01*
X-100903Y803869D01*
X-100734Y803825D01*
X-100566Y803777D01*
X-100399Y803725D01*
X-100234Y803669D01*
X-100070Y803609D01*
X-99907Y803546D01*
X-99747Y803478D01*
X-99587Y803406D01*
X-99430Y803331D01*
X-99274Y803251D01*
X-99121Y803168D01*
X-98969Y803082D01*
X-98820Y802991D01*
X-98673Y802897D01*
X-98528Y802800D01*
X-98385Y802699D01*
X-98245Y802595D01*
X-98108Y802487D01*
X-97973Y802376D01*
X-97841Y802262D01*
X-97712Y802145D01*
X-97585Y802024D01*
X-97462Y801901D01*
X-97341Y801774D01*
X-97224Y801645D01*
X-97110Y801513D01*
X-96999Y801378D01*
X-96891Y801241D01*
X-96787Y801101D01*
X-96686Y800958D01*
X-96589Y800813D01*
X-96495Y800666D01*
X-96404Y800517D01*
X-96318Y800365D01*
X-96235Y800212D01*
X-96155Y800056D01*
X-96080Y799899D01*
X-96008Y799739D01*
X-95940Y799579D01*
X-95877Y799416D01*
X-95817Y799252D01*
X-95761Y799087D01*
X-95709Y798920D01*
X-95661Y798752D01*
X-95617Y798583D01*
X-95577Y798413D01*
X-95542Y798242D01*
X-95510Y798070D01*
X-95483Y797898D01*
X-95460Y797725D01*
X-95441Y797551D01*
X-95426Y797377D01*
X-95415Y797203D01*
X-95409Y797029D01*
X-95407Y796854D01*
X287064Y563118D02*
X292483Y546862D01*
X297902Y563118D01*
X304988Y563118D02*
X304988Y546862D01*
X303182Y546862D02*
X306794Y546862D01*
X306794Y563118D02*
X303182Y563118D01*
X317875Y546862D02*
X317993Y546864D01*
X318111Y546870D01*
X318229Y546879D01*
X318346Y546893D01*
X318463Y546910D01*
X318580Y546931D01*
X318695Y546956D01*
X318810Y546985D01*
X318924Y547018D01*
X319036Y547054D01*
X319147Y547094D01*
X319257Y547137D01*
X319366Y547184D01*
X319473Y547234D01*
X319578Y547289D01*
X319681Y547346D01*
X319782Y547407D01*
X319882Y547471D01*
X319979Y547538D01*
X320074Y547608D01*
X320166Y547682D01*
X320257Y547758D01*
X320344Y547838D01*
X320429Y547920D01*
X320511Y548005D01*
X320591Y548092D01*
X320667Y548183D01*
X320741Y548275D01*
X320811Y548370D01*
X320878Y548467D01*
X320942Y548567D01*
X321003Y548668D01*
X321060Y548771D01*
X321115Y548876D01*
X321165Y548983D01*
X321212Y549092D01*
X321255Y549202D01*
X321295Y549313D01*
X321331Y549425D01*
X321364Y549539D01*
X321393Y549654D01*
X321418Y549769D01*
X321439Y549886D01*
X321456Y550003D01*
X321470Y550120D01*
X321479Y550238D01*
X321485Y550356D01*
X321487Y550474D01*
X317875Y546862D02*
X317692Y546864D01*
X317510Y546871D01*
X317328Y546882D01*
X317146Y546897D01*
X316964Y546917D01*
X316783Y546940D01*
X316603Y546969D01*
X316423Y547001D01*
X316244Y547038D01*
X316067Y547079D01*
X315890Y547125D01*
X315714Y547174D01*
X315540Y547228D01*
X315366Y547286D01*
X315195Y547348D01*
X315025Y547414D01*
X314856Y547485D01*
X314689Y547559D01*
X314524Y547637D01*
X314361Y547719D01*
X314200Y547805D01*
X314041Y547895D01*
X313884Y547989D01*
X313730Y548086D01*
X313578Y548187D01*
X313428Y548292D01*
X313281Y548400D01*
X313137Y548511D01*
X312995Y548626D01*
X312856Y548745D01*
X312720Y548867D01*
X312587Y548992D01*
X312457Y549120D01*
X312908Y559506D02*
X312910Y559624D01*
X312916Y559742D01*
X312925Y559860D01*
X312939Y559977D01*
X312956Y560094D01*
X312977Y560211D01*
X313002Y560326D01*
X313031Y560441D01*
X313064Y560555D01*
X313100Y560667D01*
X313140Y560778D01*
X313183Y560888D01*
X313230Y560997D01*
X313280Y561104D01*
X313335Y561209D01*
X313392Y561312D01*
X313453Y561413D01*
X313517Y561513D01*
X313584Y561610D01*
X313654Y561705D01*
X313728Y561797D01*
X313804Y561888D01*
X313884Y561975D01*
X313966Y562060D01*
X314051Y562142D01*
X314138Y562222D01*
X314229Y562298D01*
X314321Y562372D01*
X314416Y562442D01*
X314513Y562509D01*
X314613Y562573D01*
X314714Y562634D01*
X314817Y562692D01*
X314922Y562746D01*
X315029Y562796D01*
X315138Y562843D01*
X315248Y562887D01*
X315359Y562926D01*
X315472Y562962D01*
X315585Y562995D01*
X315700Y563024D01*
X315815Y563049D01*
X315932Y563070D01*
X316049Y563087D01*
X316166Y563101D01*
X316284Y563110D01*
X316402Y563116D01*
X316520Y563118D01*
X316681Y563116D01*
X316843Y563110D01*
X317004Y563101D01*
X317165Y563087D01*
X317325Y563070D01*
X317485Y563049D01*
X317645Y563024D01*
X317804Y562995D01*
X317962Y562963D01*
X318119Y562927D01*
X318275Y562887D01*
X318431Y562843D01*
X318585Y562795D01*
X318738Y562744D01*
X318890Y562690D01*
X319041Y562631D01*
X319190Y562570D01*
X319337Y562504D01*
X319483Y562435D01*
X319628Y562363D01*
X319770Y562287D01*
X319911Y562208D01*
X320050Y562126D01*
X320186Y562040D01*
X320321Y561951D01*
X320454Y561859D01*
X320584Y561763D01*
X314714Y556345D02*
X314613Y556407D01*
X314513Y556472D01*
X314416Y556541D01*
X314321Y556613D01*
X314228Y556687D01*
X314138Y556765D01*
X314050Y556846D01*
X313965Y556929D01*
X313883Y557015D01*
X313804Y557104D01*
X313727Y557195D01*
X313654Y557289D01*
X313583Y557385D01*
X313516Y557483D01*
X313452Y557583D01*
X313391Y557686D01*
X313334Y557790D01*
X313280Y557896D01*
X313230Y558004D01*
X313183Y558113D01*
X313139Y558224D01*
X313099Y558336D01*
X313063Y558450D01*
X313031Y558564D01*
X313002Y558680D01*
X312977Y558796D01*
X312956Y558913D01*
X312939Y559031D01*
X312925Y559149D01*
X312916Y559268D01*
X312910Y559387D01*
X312908Y559506D01*
X319682Y553635D02*
X319783Y553573D01*
X319883Y553508D01*
X319980Y553439D01*
X320075Y553367D01*
X320168Y553293D01*
X320258Y553215D01*
X320346Y553134D01*
X320431Y553051D01*
X320513Y552965D01*
X320592Y552876D01*
X320669Y552785D01*
X320742Y552691D01*
X320813Y552595D01*
X320880Y552497D01*
X320944Y552397D01*
X321005Y552294D01*
X321062Y552190D01*
X321116Y552084D01*
X321166Y551976D01*
X321213Y551867D01*
X321257Y551756D01*
X321297Y551644D01*
X321333Y551530D01*
X321365Y551416D01*
X321394Y551300D01*
X321419Y551184D01*
X321440Y551067D01*
X321457Y550949D01*
X321471Y550831D01*
X321480Y550712D01*
X321486Y550593D01*
X321488Y550474D01*
X319681Y553635D02*
X314714Y556345D01*
X328956Y563118D02*
X328956Y546862D01*
X327150Y546862D02*
X330762Y546862D01*
X330762Y563118D02*
X327150Y563118D01*
X336945Y558602D02*
X336945Y551378D01*
X336945Y558602D02*
X336947Y558735D01*
X336953Y558867D01*
X336963Y558999D01*
X336976Y559131D01*
X336994Y559263D01*
X337015Y559393D01*
X337040Y559524D01*
X337069Y559653D01*
X337102Y559781D01*
X337138Y559909D01*
X337178Y560035D01*
X337222Y560160D01*
X337270Y560284D01*
X337321Y560406D01*
X337376Y560527D01*
X337434Y560646D01*
X337496Y560764D01*
X337561Y560879D01*
X337630Y560993D01*
X337701Y561104D01*
X337777Y561213D01*
X337855Y561320D01*
X337936Y561425D01*
X338021Y561527D01*
X338108Y561627D01*
X338198Y561724D01*
X338291Y561819D01*
X338387Y561910D01*
X338485Y561999D01*
X338586Y562085D01*
X338690Y562168D01*
X338796Y562248D01*
X338904Y562324D01*
X339014Y562398D01*
X339127Y562468D01*
X339241Y562535D01*
X339358Y562598D01*
X339476Y562658D01*
X339596Y562715D01*
X339718Y562768D01*
X339841Y562817D01*
X339965Y562863D01*
X340091Y562905D01*
X340218Y562943D01*
X340346Y562978D01*
X340475Y563009D01*
X340604Y563036D01*
X340735Y563059D01*
X340866Y563079D01*
X340998Y563094D01*
X341130Y563106D01*
X341262Y563114D01*
X341395Y563118D01*
X341527Y563118D01*
X341660Y563114D01*
X341792Y563106D01*
X341924Y563094D01*
X342056Y563079D01*
X342187Y563059D01*
X342318Y563036D01*
X342447Y563009D01*
X342576Y562978D01*
X342704Y562943D01*
X342831Y562905D01*
X342957Y562863D01*
X343081Y562817D01*
X343204Y562768D01*
X343326Y562715D01*
X343446Y562658D01*
X343564Y562598D01*
X343681Y562535D01*
X343795Y562468D01*
X343908Y562398D01*
X344018Y562324D01*
X344126Y562248D01*
X344232Y562168D01*
X344336Y562085D01*
X344437Y561999D01*
X344535Y561910D01*
X344631Y561819D01*
X344724Y561724D01*
X344814Y561627D01*
X344901Y561527D01*
X344986Y561425D01*
X345067Y561320D01*
X345145Y561213D01*
X345221Y561104D01*
X345292Y560993D01*
X345361Y560879D01*
X345426Y560764D01*
X345488Y560646D01*
X345546Y560527D01*
X345601Y560406D01*
X345652Y560284D01*
X345700Y560160D01*
X345744Y560035D01*
X345784Y559909D01*
X345820Y559781D01*
X345853Y559653D01*
X345882Y559524D01*
X345907Y559393D01*
X345928Y559263D01*
X345946Y559131D01*
X345959Y558999D01*
X345969Y558867D01*
X345975Y558735D01*
X345977Y558602D01*
X345976Y558602D02*
X345976Y551378D01*
X345977Y551378D02*
X345975Y551245D01*
X345969Y551113D01*
X345959Y550981D01*
X345946Y550849D01*
X345928Y550717D01*
X345907Y550587D01*
X345882Y550456D01*
X345853Y550327D01*
X345820Y550199D01*
X345784Y550071D01*
X345744Y549945D01*
X345700Y549820D01*
X345652Y549696D01*
X345601Y549574D01*
X345546Y549453D01*
X345488Y549334D01*
X345426Y549216D01*
X345361Y549101D01*
X345292Y548987D01*
X345221Y548876D01*
X345145Y548767D01*
X345067Y548660D01*
X344986Y548555D01*
X344901Y548453D01*
X344814Y548353D01*
X344724Y548256D01*
X344631Y548161D01*
X344535Y548070D01*
X344437Y547981D01*
X344336Y547895D01*
X344232Y547812D01*
X344126Y547732D01*
X344018Y547656D01*
X343908Y547582D01*
X343795Y547512D01*
X343681Y547445D01*
X343564Y547382D01*
X343446Y547322D01*
X343326Y547265D01*
X343204Y547212D01*
X343081Y547163D01*
X342957Y547117D01*
X342831Y547075D01*
X342704Y547037D01*
X342576Y547002D01*
X342447Y546971D01*
X342318Y546944D01*
X342187Y546921D01*
X342056Y546901D01*
X341924Y546886D01*
X341792Y546874D01*
X341660Y546866D01*
X341527Y546862D01*
X341395Y546862D01*
X341262Y546866D01*
X341130Y546874D01*
X340998Y546886D01*
X340866Y546901D01*
X340735Y546921D01*
X340604Y546944D01*
X340475Y546971D01*
X340346Y547002D01*
X340218Y547037D01*
X340091Y547075D01*
X339965Y547117D01*
X339841Y547163D01*
X339718Y547212D01*
X339596Y547265D01*
X339476Y547322D01*
X339358Y547382D01*
X339241Y547445D01*
X339127Y547512D01*
X339014Y547582D01*
X338904Y547656D01*
X338796Y547732D01*
X338690Y547812D01*
X338586Y547895D01*
X338485Y547981D01*
X338387Y548070D01*
X338291Y548161D01*
X338198Y548256D01*
X338108Y548353D01*
X338021Y548453D01*
X337936Y548555D01*
X337855Y548660D01*
X337777Y548767D01*
X337701Y548876D01*
X337630Y548987D01*
X337561Y549101D01*
X337496Y549216D01*
X337434Y549334D01*
X337376Y549453D01*
X337321Y549574D01*
X337270Y549696D01*
X337222Y549820D01*
X337178Y549945D01*
X337138Y550071D01*
X337102Y550199D01*
X337069Y550327D01*
X337040Y550456D01*
X337015Y550587D01*
X336994Y550717D01*
X336976Y550849D01*
X336963Y550981D01*
X336953Y551113D01*
X336947Y551245D01*
X336945Y551378D01*
X353098Y546862D02*
X353098Y563118D01*
X362129Y546862D01*
X362129Y563118D01*
X369389Y553184D02*
X380226Y553184D01*
X374808Y547765D02*
X374808Y558602D01*
X387104Y553184D02*
X397942Y553184D01*
X392523Y558602D02*
X392523Y547765D01*
X413749Y555893D02*
X418265Y555893D01*
X418265Y555894D02*
X418398Y555892D01*
X418530Y555886D01*
X418662Y555876D01*
X418794Y555863D01*
X418926Y555845D01*
X419056Y555824D01*
X419187Y555799D01*
X419316Y555770D01*
X419444Y555737D01*
X419572Y555701D01*
X419698Y555661D01*
X419823Y555617D01*
X419947Y555569D01*
X420069Y555518D01*
X420190Y555463D01*
X420309Y555405D01*
X420427Y555343D01*
X420542Y555278D01*
X420656Y555209D01*
X420767Y555138D01*
X420876Y555062D01*
X420983Y554984D01*
X421088Y554903D01*
X421190Y554818D01*
X421290Y554731D01*
X421387Y554641D01*
X421482Y554548D01*
X421573Y554452D01*
X421662Y554354D01*
X421748Y554253D01*
X421831Y554149D01*
X421911Y554043D01*
X421987Y553935D01*
X422061Y553825D01*
X422131Y553712D01*
X422198Y553598D01*
X422261Y553481D01*
X422321Y553363D01*
X422378Y553243D01*
X422431Y553121D01*
X422480Y552998D01*
X422526Y552874D01*
X422568Y552748D01*
X422606Y552621D01*
X422641Y552493D01*
X422672Y552364D01*
X422699Y552235D01*
X422722Y552104D01*
X422742Y551973D01*
X422757Y551841D01*
X422769Y551709D01*
X422777Y551577D01*
X422781Y551444D01*
X422781Y551312D01*
X422777Y551179D01*
X422769Y551047D01*
X422757Y550915D01*
X422742Y550783D01*
X422722Y550652D01*
X422699Y550521D01*
X422672Y550392D01*
X422641Y550263D01*
X422606Y550135D01*
X422568Y550008D01*
X422526Y549882D01*
X422480Y549758D01*
X422431Y549635D01*
X422378Y549513D01*
X422321Y549393D01*
X422261Y549275D01*
X422198Y549158D01*
X422131Y549044D01*
X422061Y548931D01*
X421987Y548821D01*
X421911Y548713D01*
X421831Y548607D01*
X421748Y548503D01*
X421662Y548402D01*
X421573Y548304D01*
X421482Y548208D01*
X421387Y548115D01*
X421290Y548025D01*
X421190Y547938D01*
X421088Y547853D01*
X420983Y547772D01*
X420876Y547694D01*
X420767Y547618D01*
X420656Y547547D01*
X420542Y547478D01*
X420427Y547413D01*
X420309Y547351D01*
X420190Y547293D01*
X420069Y547238D01*
X419947Y547187D01*
X419823Y547139D01*
X419698Y547095D01*
X419572Y547055D01*
X419444Y547019D01*
X419316Y546986D01*
X419187Y546957D01*
X419056Y546932D01*
X418926Y546911D01*
X418794Y546893D01*
X418662Y546880D01*
X418530Y546870D01*
X418398Y546864D01*
X418265Y546862D01*
X413749Y546862D01*
X413749Y563118D01*
X418265Y563118D01*
X418384Y563116D01*
X418504Y563110D01*
X418623Y563100D01*
X418741Y563086D01*
X418860Y563069D01*
X418977Y563047D01*
X419094Y563022D01*
X419209Y562992D01*
X419324Y562959D01*
X419438Y562922D01*
X419550Y562882D01*
X419661Y562837D01*
X419770Y562789D01*
X419878Y562738D01*
X419984Y562683D01*
X420088Y562624D01*
X420190Y562562D01*
X420290Y562497D01*
X420388Y562428D01*
X420484Y562356D01*
X420577Y562281D01*
X420667Y562204D01*
X420755Y562123D01*
X420840Y562039D01*
X420922Y561952D01*
X421002Y561863D01*
X421078Y561771D01*
X421152Y561677D01*
X421222Y561580D01*
X421289Y561482D01*
X421353Y561381D01*
X421413Y561277D01*
X421470Y561172D01*
X421523Y561065D01*
X421573Y560957D01*
X421619Y560847D01*
X421661Y560735D01*
X421700Y560622D01*
X421735Y560508D01*
X421766Y560393D01*
X421794Y560276D01*
X421817Y560159D01*
X421837Y560042D01*
X421853Y559923D01*
X421865Y559804D01*
X421873Y559685D01*
X421877Y559566D01*
X421877Y559446D01*
X421873Y559327D01*
X421865Y559208D01*
X421853Y559089D01*
X421837Y558970D01*
X421817Y558853D01*
X421794Y558736D01*
X421766Y558619D01*
X421735Y558504D01*
X421700Y558390D01*
X421661Y558277D01*
X421619Y558165D01*
X421573Y558055D01*
X421523Y557947D01*
X421470Y557840D01*
X421413Y557735D01*
X421353Y557631D01*
X421289Y557530D01*
X421222Y557432D01*
X421152Y557335D01*
X421078Y557241D01*
X421002Y557149D01*
X420922Y557060D01*
X420840Y556973D01*
X420755Y556889D01*
X420667Y556808D01*
X420577Y556731D01*
X420484Y556656D01*
X420388Y556584D01*
X420290Y556515D01*
X420190Y556450D01*
X420088Y556388D01*
X419984Y556329D01*
X419878Y556274D01*
X419770Y556223D01*
X419661Y556175D01*
X419550Y556130D01*
X419438Y556090D01*
X419324Y556053D01*
X419209Y556020D01*
X419094Y555990D01*
X418977Y555965D01*
X418860Y555943D01*
X418741Y555926D01*
X418623Y555912D01*
X418504Y555902D01*
X418384Y555896D01*
X418265Y555894D01*
X429261Y563118D02*
X429261Y546862D01*
X429261Y563118D02*
X433777Y563118D01*
X433910Y563116D01*
X434042Y563110D01*
X434174Y563100D01*
X434306Y563087D01*
X434438Y563069D01*
X434568Y563048D01*
X434699Y563023D01*
X434828Y562994D01*
X434956Y562961D01*
X435084Y562925D01*
X435210Y562885D01*
X435335Y562841D01*
X435459Y562793D01*
X435581Y562742D01*
X435702Y562687D01*
X435821Y562629D01*
X435939Y562567D01*
X436054Y562502D01*
X436168Y562433D01*
X436279Y562362D01*
X436388Y562286D01*
X436495Y562208D01*
X436600Y562127D01*
X436702Y562042D01*
X436802Y561955D01*
X436899Y561865D01*
X436994Y561772D01*
X437085Y561676D01*
X437174Y561578D01*
X437260Y561477D01*
X437343Y561373D01*
X437423Y561267D01*
X437499Y561159D01*
X437573Y561049D01*
X437643Y560936D01*
X437710Y560822D01*
X437773Y560705D01*
X437833Y560587D01*
X437890Y560467D01*
X437943Y560345D01*
X437992Y560222D01*
X438038Y560098D01*
X438080Y559972D01*
X438118Y559845D01*
X438153Y559717D01*
X438184Y559588D01*
X438211Y559459D01*
X438234Y559328D01*
X438254Y559197D01*
X438269Y559065D01*
X438281Y558933D01*
X438289Y558801D01*
X438293Y558668D01*
X438293Y558536D01*
X438289Y558403D01*
X438281Y558271D01*
X438269Y558139D01*
X438254Y558007D01*
X438234Y557876D01*
X438211Y557745D01*
X438184Y557616D01*
X438153Y557487D01*
X438118Y557359D01*
X438080Y557232D01*
X438038Y557106D01*
X437992Y556982D01*
X437943Y556859D01*
X437890Y556737D01*
X437833Y556617D01*
X437773Y556499D01*
X437710Y556382D01*
X437643Y556268D01*
X437573Y556155D01*
X437499Y556045D01*
X437423Y555937D01*
X437343Y555831D01*
X437260Y555727D01*
X437174Y555626D01*
X437085Y555528D01*
X436994Y555432D01*
X436899Y555339D01*
X436802Y555249D01*
X436702Y555162D01*
X436600Y555077D01*
X436495Y554996D01*
X436388Y554918D01*
X436279Y554842D01*
X436168Y554771D01*
X436054Y554702D01*
X435939Y554637D01*
X435821Y554575D01*
X435702Y554517D01*
X435581Y554462D01*
X435459Y554411D01*
X435335Y554363D01*
X435210Y554319D01*
X435084Y554279D01*
X434956Y554243D01*
X434828Y554210D01*
X434699Y554181D01*
X434568Y554156D01*
X434438Y554135D01*
X434306Y554117D01*
X434174Y554104D01*
X434042Y554094D01*
X433910Y554088D01*
X433777Y554086D01*
X433777Y554087D02*
X429261Y554087D01*
X434680Y554087D02*
X438292Y546862D01*
X445322Y546862D02*
X445322Y563118D01*
X449837Y563118D01*
X449968Y563116D01*
X450100Y563110D01*
X450231Y563101D01*
X450361Y563087D01*
X450492Y563070D01*
X450621Y563049D01*
X450750Y563025D01*
X450878Y562996D01*
X451006Y562964D01*
X451132Y562928D01*
X451257Y562889D01*
X451382Y562846D01*
X451504Y562799D01*
X451626Y562749D01*
X451746Y562695D01*
X451864Y562638D01*
X451980Y562577D01*
X452095Y562513D01*
X452208Y562446D01*
X452319Y562375D01*
X452427Y562301D01*
X452534Y562224D01*
X452638Y562144D01*
X452740Y562061D01*
X452839Y561976D01*
X452936Y561887D01*
X453030Y561795D01*
X453122Y561701D01*
X453211Y561604D01*
X453296Y561505D01*
X453379Y561403D01*
X453459Y561299D01*
X453536Y561192D01*
X453610Y561084D01*
X453681Y560973D01*
X453748Y560860D01*
X453812Y560745D01*
X453873Y560629D01*
X453930Y560511D01*
X453984Y560391D01*
X454034Y560269D01*
X454081Y560147D01*
X454124Y560022D01*
X454163Y559897D01*
X454199Y559771D01*
X454231Y559643D01*
X454260Y559515D01*
X454284Y559386D01*
X454305Y559257D01*
X454322Y559126D01*
X454336Y558996D01*
X454345Y558865D01*
X454351Y558733D01*
X454353Y558602D01*
X454353Y551378D01*
X454351Y551247D01*
X454345Y551115D01*
X454336Y550984D01*
X454322Y550854D01*
X454305Y550723D01*
X454284Y550594D01*
X454260Y550465D01*
X454231Y550337D01*
X454199Y550209D01*
X454163Y550083D01*
X454124Y549958D01*
X454081Y549833D01*
X454034Y549711D01*
X453984Y549589D01*
X453930Y549469D01*
X453873Y549351D01*
X453812Y549235D01*
X453748Y549120D01*
X453681Y549007D01*
X453610Y548896D01*
X453536Y548788D01*
X453459Y548681D01*
X453379Y548577D01*
X453296Y548475D01*
X453211Y548376D01*
X453122Y548279D01*
X453030Y548185D01*
X452936Y548093D01*
X452839Y548004D01*
X452740Y547919D01*
X452638Y547836D01*
X452534Y547756D01*
X452427Y547679D01*
X452319Y547605D01*
X452208Y547534D01*
X452095Y547467D01*
X451980Y547403D01*
X451864Y547342D01*
X451746Y547285D01*
X451626Y547231D01*
X451504Y547181D01*
X451382Y547134D01*
X451257Y547091D01*
X451132Y547052D01*
X451006Y547016D01*
X450878Y546984D01*
X450750Y546955D01*
X450621Y546931D01*
X450491Y546910D01*
X450361Y546893D01*
X450231Y546879D01*
X450100Y546870D01*
X449968Y546864D01*
X449837Y546862D01*
X445322Y546862D01*
X474778Y563118D02*
X474903Y563116D01*
X475028Y563110D01*
X475153Y563101D01*
X475277Y563087D01*
X475401Y563070D01*
X475525Y563049D01*
X475647Y563024D01*
X475769Y562995D01*
X475890Y562963D01*
X476010Y562927D01*
X476129Y562887D01*
X476246Y562844D01*
X476362Y562797D01*
X476477Y562746D01*
X476589Y562692D01*
X476701Y562634D01*
X476810Y562574D01*
X476917Y562509D01*
X477023Y562442D01*
X477126Y562371D01*
X477227Y562297D01*
X477326Y562220D01*
X477422Y562140D01*
X477516Y562057D01*
X477607Y561972D01*
X477696Y561883D01*
X477781Y561792D01*
X477864Y561698D01*
X477944Y561602D01*
X478021Y561503D01*
X478095Y561402D01*
X478166Y561299D01*
X478233Y561193D01*
X478298Y561086D01*
X478358Y560977D01*
X478416Y560865D01*
X478470Y560753D01*
X478521Y560638D01*
X478568Y560522D01*
X478611Y560405D01*
X478651Y560286D01*
X478687Y560166D01*
X478719Y560045D01*
X478748Y559923D01*
X478773Y559801D01*
X478794Y559677D01*
X478811Y559553D01*
X478825Y559429D01*
X478834Y559304D01*
X478840Y559179D01*
X478842Y559054D01*
X474778Y563118D02*
X474635Y563116D01*
X474493Y563110D01*
X474350Y563100D01*
X474208Y563087D01*
X474067Y563069D01*
X473925Y563048D01*
X473785Y563023D01*
X473645Y562994D01*
X473506Y562961D01*
X473368Y562924D01*
X473231Y562884D01*
X473096Y562840D01*
X472961Y562792D01*
X472828Y562740D01*
X472696Y562685D01*
X472566Y562626D01*
X472438Y562564D01*
X472311Y562498D01*
X472186Y562429D01*
X472063Y562357D01*
X471943Y562281D01*
X471824Y562202D01*
X471707Y562119D01*
X471593Y562034D01*
X471481Y561945D01*
X471372Y561854D01*
X471265Y561759D01*
X471160Y561662D01*
X471059Y561561D01*
X470960Y561458D01*
X470864Y561353D01*
X470771Y561244D01*
X470681Y561133D01*
X470594Y561020D01*
X470510Y560905D01*
X470430Y560787D01*
X470352Y560667D01*
X470278Y560545D01*
X470208Y560421D01*
X470140Y560295D01*
X470077Y560167D01*
X470016Y560038D01*
X469959Y559907D01*
X469906Y559775D01*
X469857Y559641D01*
X469811Y559506D01*
X477487Y555893D02*
X477581Y555985D01*
X477671Y556079D01*
X477759Y556176D01*
X477844Y556276D01*
X477926Y556378D01*
X478005Y556483D01*
X478080Y556590D01*
X478152Y556699D01*
X478221Y556810D01*
X478287Y556924D01*
X478349Y557039D01*
X478408Y557156D01*
X478463Y557275D01*
X478514Y557395D01*
X478562Y557517D01*
X478607Y557640D01*
X478647Y557764D01*
X478684Y557890D01*
X478717Y558017D01*
X478746Y558144D01*
X478772Y558273D01*
X478793Y558402D01*
X478811Y558532D01*
X478824Y558662D01*
X478834Y558792D01*
X478840Y558923D01*
X478842Y559054D01*
X477487Y555893D02*
X469811Y546862D01*
X478842Y546862D01*
X485442Y554990D02*
X485446Y555310D01*
X485457Y555629D01*
X485476Y555949D01*
X485503Y556267D01*
X485537Y556585D01*
X485579Y556902D01*
X485629Y557218D01*
X485686Y557533D01*
X485750Y557846D01*
X485822Y558158D01*
X485901Y558468D01*
X485988Y558775D01*
X486082Y559081D01*
X486183Y559384D01*
X486292Y559685D01*
X486407Y559983D01*
X486530Y560279D01*
X486660Y560571D01*
X486797Y560860D01*
X486797Y560861D02*
X486836Y560969D01*
X486879Y561076D01*
X486925Y561181D01*
X486976Y561285D01*
X487029Y561387D01*
X487086Y561487D01*
X487147Y561585D01*
X487211Y561680D01*
X487278Y561774D01*
X487349Y561865D01*
X487422Y561954D01*
X487499Y562040D01*
X487578Y562123D01*
X487660Y562204D01*
X487745Y562282D01*
X487833Y562356D01*
X487923Y562428D01*
X488015Y562496D01*
X488110Y562562D01*
X488207Y562624D01*
X488306Y562682D01*
X488408Y562738D01*
X488510Y562789D01*
X488615Y562837D01*
X488721Y562882D01*
X488829Y562923D01*
X488938Y562960D01*
X489048Y562993D01*
X489160Y563022D01*
X489272Y563048D01*
X489385Y563070D01*
X489499Y563087D01*
X489613Y563101D01*
X489728Y563111D01*
X489843Y563117D01*
X489958Y563119D01*
X489958Y563118D02*
X490073Y563116D01*
X490188Y563110D01*
X490303Y563100D01*
X490417Y563086D01*
X490531Y563069D01*
X490644Y563047D01*
X490756Y563021D01*
X490868Y562992D01*
X490978Y562959D01*
X491087Y562922D01*
X491195Y562881D01*
X491301Y562836D01*
X491406Y562788D01*
X491508Y562737D01*
X491609Y562681D01*
X491709Y562623D01*
X491806Y562561D01*
X491900Y562496D01*
X491993Y562427D01*
X492083Y562355D01*
X492171Y562281D01*
X492256Y562203D01*
X492338Y562122D01*
X492417Y562039D01*
X492494Y561953D01*
X492567Y561864D01*
X492638Y561773D01*
X492705Y561679D01*
X492769Y561584D01*
X492830Y561486D01*
X492887Y561386D01*
X492940Y561284D01*
X492991Y561180D01*
X493037Y561075D01*
X493080Y560968D01*
X493119Y560860D01*
X493118Y560860D02*
X493255Y560571D01*
X493385Y560279D01*
X493508Y559983D01*
X493623Y559685D01*
X493732Y559384D01*
X493833Y559081D01*
X493927Y558775D01*
X494014Y558468D01*
X494093Y558158D01*
X494165Y557846D01*
X494229Y557533D01*
X494286Y557218D01*
X494336Y556902D01*
X494378Y556585D01*
X494412Y556267D01*
X494439Y555949D01*
X494458Y555629D01*
X494469Y555310D01*
X494473Y554990D01*
X485442Y554990D02*
X485446Y554670D01*
X485457Y554351D01*
X485476Y554031D01*
X485503Y553713D01*
X485537Y553395D01*
X485579Y553078D01*
X485629Y552762D01*
X485686Y552447D01*
X485750Y552134D01*
X485822Y551822D01*
X485901Y551512D01*
X485988Y551205D01*
X486082Y550899D01*
X486183Y550596D01*
X486292Y550295D01*
X486407Y549997D01*
X486530Y549701D01*
X486660Y549409D01*
X486797Y549120D01*
X486836Y549012D01*
X486879Y548905D01*
X486925Y548800D01*
X486976Y548696D01*
X487029Y548594D01*
X487086Y548494D01*
X487147Y548396D01*
X487211Y548301D01*
X487278Y548207D01*
X487349Y548116D01*
X487422Y548027D01*
X487499Y547941D01*
X487578Y547858D01*
X487660Y547777D01*
X487745Y547699D01*
X487833Y547625D01*
X487923Y547553D01*
X488016Y547484D01*
X488110Y547419D01*
X488207Y547357D01*
X488307Y547299D01*
X488408Y547243D01*
X488510Y547192D01*
X488615Y547144D01*
X488721Y547099D01*
X488829Y547058D01*
X488938Y547021D01*
X489048Y546988D01*
X489160Y546959D01*
X489272Y546933D01*
X489385Y546911D01*
X489499Y546894D01*
X489613Y546880D01*
X489728Y546870D01*
X489843Y546864D01*
X489958Y546862D01*
X493118Y549120D02*
X493255Y549409D01*
X493385Y549701D01*
X493508Y549997D01*
X493623Y550295D01*
X493732Y550596D01*
X493833Y550899D01*
X493927Y551205D01*
X494014Y551512D01*
X494093Y551822D01*
X494165Y552134D01*
X494229Y552447D01*
X494286Y552762D01*
X494336Y553078D01*
X494378Y553395D01*
X494412Y553713D01*
X494439Y554031D01*
X494458Y554351D01*
X494469Y554670D01*
X494473Y554990D01*
X493119Y549120D02*
X493080Y549012D01*
X493037Y548905D01*
X492991Y548800D01*
X492940Y548696D01*
X492887Y548594D01*
X492830Y548494D01*
X492769Y548396D01*
X492705Y548301D01*
X492638Y548207D01*
X492567Y548116D01*
X492494Y548027D01*
X492417Y547941D01*
X492338Y547858D01*
X492256Y547777D01*
X492171Y547699D01*
X492083Y547625D01*
X491993Y547553D01*
X491900Y547484D01*
X491806Y547419D01*
X491709Y547357D01*
X491609Y547299D01*
X491508Y547243D01*
X491405Y547192D01*
X491301Y547144D01*
X491195Y547099D01*
X491087Y547058D01*
X490978Y547021D01*
X490868Y546988D01*
X490756Y546959D01*
X490644Y546933D01*
X490531Y546911D01*
X490417Y546894D01*
X490303Y546880D01*
X490188Y546870D01*
X490073Y546864D01*
X489958Y546862D01*
X486345Y550474D02*
X493570Y559506D01*
X506040Y563118D02*
X506165Y563116D01*
X506290Y563110D01*
X506415Y563101D01*
X506539Y563087D01*
X506663Y563070D01*
X506787Y563049D01*
X506909Y563024D01*
X507031Y562995D01*
X507152Y562963D01*
X507272Y562927D01*
X507391Y562887D01*
X507508Y562844D01*
X507624Y562797D01*
X507739Y562746D01*
X507851Y562692D01*
X507963Y562634D01*
X508072Y562574D01*
X508179Y562509D01*
X508285Y562442D01*
X508388Y562371D01*
X508489Y562297D01*
X508588Y562220D01*
X508684Y562140D01*
X508778Y562057D01*
X508869Y561972D01*
X508958Y561883D01*
X509043Y561792D01*
X509126Y561698D01*
X509206Y561602D01*
X509283Y561503D01*
X509357Y561402D01*
X509428Y561299D01*
X509495Y561193D01*
X509560Y561086D01*
X509620Y560977D01*
X509678Y560865D01*
X509732Y560753D01*
X509783Y560638D01*
X509830Y560522D01*
X509873Y560405D01*
X509913Y560286D01*
X509949Y560166D01*
X509981Y560045D01*
X510010Y559923D01*
X510035Y559801D01*
X510056Y559677D01*
X510073Y559553D01*
X510087Y559429D01*
X510096Y559304D01*
X510102Y559179D01*
X510104Y559054D01*
X506040Y563118D02*
X505897Y563116D01*
X505755Y563110D01*
X505612Y563100D01*
X505470Y563087D01*
X505329Y563069D01*
X505187Y563048D01*
X505047Y563023D01*
X504907Y562994D01*
X504768Y562961D01*
X504630Y562924D01*
X504493Y562884D01*
X504358Y562840D01*
X504223Y562792D01*
X504090Y562740D01*
X503958Y562685D01*
X503828Y562626D01*
X503700Y562564D01*
X503573Y562498D01*
X503448Y562429D01*
X503325Y562357D01*
X503205Y562281D01*
X503086Y562202D01*
X502969Y562119D01*
X502855Y562034D01*
X502743Y561945D01*
X502634Y561854D01*
X502527Y561759D01*
X502422Y561662D01*
X502321Y561561D01*
X502222Y561458D01*
X502126Y561353D01*
X502033Y561244D01*
X501943Y561133D01*
X501856Y561020D01*
X501772Y560905D01*
X501692Y560787D01*
X501614Y560667D01*
X501540Y560545D01*
X501470Y560421D01*
X501402Y560295D01*
X501339Y560167D01*
X501278Y560038D01*
X501221Y559907D01*
X501168Y559775D01*
X501119Y559641D01*
X501073Y559506D01*
X508749Y555893D02*
X508843Y555985D01*
X508933Y556079D01*
X509021Y556176D01*
X509106Y556276D01*
X509188Y556378D01*
X509267Y556483D01*
X509342Y556590D01*
X509414Y556699D01*
X509483Y556810D01*
X509549Y556924D01*
X509611Y557039D01*
X509670Y557156D01*
X509725Y557275D01*
X509776Y557395D01*
X509824Y557517D01*
X509869Y557640D01*
X509909Y557764D01*
X509946Y557890D01*
X509979Y558017D01*
X510008Y558144D01*
X510034Y558273D01*
X510055Y558402D01*
X510073Y558532D01*
X510086Y558662D01*
X510096Y558792D01*
X510102Y558923D01*
X510104Y559054D01*
X508750Y555893D02*
X501073Y546862D01*
X510104Y546862D01*
X525736Y559054D02*
X525734Y559179D01*
X525728Y559304D01*
X525719Y559429D01*
X525705Y559553D01*
X525688Y559677D01*
X525667Y559801D01*
X525642Y559923D01*
X525613Y560045D01*
X525581Y560166D01*
X525545Y560286D01*
X525505Y560405D01*
X525462Y560522D01*
X525415Y560638D01*
X525364Y560753D01*
X525310Y560865D01*
X525252Y560977D01*
X525192Y561086D01*
X525127Y561193D01*
X525060Y561299D01*
X524989Y561402D01*
X524915Y561503D01*
X524838Y561602D01*
X524758Y561698D01*
X524675Y561792D01*
X524590Y561883D01*
X524501Y561972D01*
X524410Y562057D01*
X524316Y562140D01*
X524220Y562220D01*
X524121Y562297D01*
X524020Y562371D01*
X523917Y562442D01*
X523811Y562509D01*
X523704Y562574D01*
X523595Y562634D01*
X523483Y562692D01*
X523371Y562746D01*
X523256Y562797D01*
X523140Y562844D01*
X523023Y562887D01*
X522904Y562927D01*
X522784Y562963D01*
X522663Y562995D01*
X522541Y563024D01*
X522419Y563049D01*
X522295Y563070D01*
X522171Y563087D01*
X522047Y563101D01*
X521922Y563110D01*
X521797Y563116D01*
X521672Y563118D01*
X521529Y563116D01*
X521387Y563110D01*
X521244Y563100D01*
X521102Y563087D01*
X520961Y563069D01*
X520819Y563048D01*
X520679Y563023D01*
X520539Y562994D01*
X520400Y562961D01*
X520262Y562924D01*
X520125Y562884D01*
X519990Y562840D01*
X519855Y562792D01*
X519722Y562740D01*
X519590Y562685D01*
X519460Y562626D01*
X519332Y562564D01*
X519205Y562498D01*
X519080Y562429D01*
X518957Y562357D01*
X518837Y562281D01*
X518718Y562202D01*
X518601Y562119D01*
X518487Y562034D01*
X518375Y561945D01*
X518266Y561854D01*
X518159Y561759D01*
X518054Y561662D01*
X517953Y561561D01*
X517854Y561458D01*
X517758Y561353D01*
X517665Y561244D01*
X517575Y561133D01*
X517488Y561020D01*
X517404Y560905D01*
X517324Y560787D01*
X517246Y560667D01*
X517172Y560545D01*
X517102Y560421D01*
X517034Y560295D01*
X516971Y560167D01*
X516910Y560038D01*
X516853Y559907D01*
X516800Y559775D01*
X516751Y559641D01*
X516705Y559506D01*
X524380Y555893D02*
X524474Y555985D01*
X524564Y556079D01*
X524652Y556176D01*
X524737Y556276D01*
X524819Y556378D01*
X524898Y556483D01*
X524973Y556590D01*
X525045Y556699D01*
X525114Y556810D01*
X525180Y556924D01*
X525242Y557039D01*
X525301Y557156D01*
X525356Y557275D01*
X525407Y557395D01*
X525455Y557517D01*
X525500Y557640D01*
X525540Y557764D01*
X525577Y557890D01*
X525610Y558017D01*
X525639Y558144D01*
X525665Y558273D01*
X525686Y558402D01*
X525704Y558532D01*
X525717Y558662D01*
X525727Y558792D01*
X525733Y558923D01*
X525735Y559054D01*
X524381Y555893D02*
X516704Y546862D01*
X525736Y546862D01*
D12*
X139700Y749300D03*
X139700Y774700D03*
X139700Y800100D03*
X139700Y825500D03*
X139700Y850900D03*
X139700Y876300D03*
X139700Y901700D03*
D13*
X139700Y927100D03*
X368300Y927100D03*
D12*
X368300Y901700D03*
X368300Y876300D03*
X368300Y850900D03*
X368300Y825500D03*
X368300Y800100D03*
X368300Y774700D03*
X368300Y749300D03*
D14*
X25273Y881888D02*
X127Y881888D01*
X127Y921512D02*
X25273Y921512D01*
X470027Y705612D02*
X495173Y705612D01*
X495173Y665988D02*
X470027Y665988D01*
D15*
X12700Y579120D02*
X12700Y563880D01*
X38100Y563880D02*
X38100Y579120D01*
X63500Y579120D02*
X63500Y563880D01*
D14*
X25273Y781812D02*
X127Y781812D01*
X127Y742188D02*
X25273Y742188D01*
D16*
X444500Y800100D03*
X444500Y952500D03*
D17*
X152400Y647700D03*
X0Y647700D03*
D18*
X177800Y800100D03*
X177800Y647700D03*
D19*
X419100Y800100D02*
X444500Y800100D01*
X419100Y800100D02*
X393700Y825500D01*
X368300Y825500D01*
X495300Y927100D02*
X469900Y952500D01*
X495300Y927100D02*
X495300Y718312D01*
X482600Y705612D01*
X393700Y876300D02*
X368300Y876300D01*
X393700Y876300D02*
X406400Y889000D01*
X406400Y939800D01*
X419100Y952500D01*
X444500Y952500D01*
X469900Y952500D01*
X482600Y665988D02*
X426212Y665988D01*
X368300Y723900D01*
X368300Y749300D01*
X215900Y876300D02*
X190500Y901700D01*
X139700Y901700D01*
X215900Y876300D02*
X215900Y787400D01*
X215900Y635000D01*
X190500Y609600D01*
X63500Y609600D01*
X38100Y584200D01*
X38100Y571500D01*
X121412Y901700D02*
X139700Y901700D01*
X121412Y901700D02*
X101600Y921512D01*
X12700Y921512D01*
X177800Y800100D02*
X203200Y800100D01*
X215900Y787400D01*
X203200Y571500D02*
X63500Y571500D01*
X139700Y927100D02*
X215900Y927100D01*
X254000Y889000D01*
X254000Y622300D01*
X203200Y571500D01*
X12700Y781812D02*
X12700Y881888D01*
X12700Y660400D02*
X0Y647700D01*
X12700Y660400D02*
X12700Y742188D01*
X0Y647700D02*
X12700Y635000D01*
X12700Y571500D01*
X152400Y647700D02*
X177800Y647700D01*
X152400Y647700D02*
X139700Y660400D01*
X139700Y749300D01*
M02*
