G04 EAGLE Gerber RS-274X export*
G75*
%MOMM*%
%FSLAX34Y34*%
%LPD*%
%INSoldermask Bottom*%
%IPPOS*%
%AMOC8*
5,1,8,0,0,1.08239X$1,22.5*%
G01*
%ADD10C,1.868200*%
%ADD11R,1.868200X1.868200*%
%ADD12C,2.717800*%
%ADD13C,1.727200*%
%ADD14P,1.649562X8X112.500000*%
%ADD15P,1.649562X8X202.500000*%
%ADD16P,1.649562X8X292.500000*%


D10*
X139700Y749300D03*
X139700Y774700D03*
X139700Y800100D03*
X139700Y825500D03*
X139700Y850900D03*
X139700Y876300D03*
X139700Y901700D03*
D11*
X139700Y927100D03*
X368300Y927100D03*
D10*
X368300Y901700D03*
X368300Y876300D03*
X368300Y850900D03*
X368300Y825500D03*
X368300Y800100D03*
X368300Y774700D03*
X368300Y749300D03*
D12*
X25273Y881888D02*
X127Y881888D01*
X127Y921512D02*
X25273Y921512D01*
X470027Y705612D02*
X495173Y705612D01*
X495173Y665988D02*
X470027Y665988D01*
D13*
X12700Y579120D02*
X12700Y563880D01*
X38100Y563880D02*
X38100Y579120D01*
X63500Y579120D02*
X63500Y563880D01*
D12*
X25273Y781812D02*
X127Y781812D01*
X127Y742188D02*
X25273Y742188D01*
D14*
X444500Y800100D03*
X444500Y952500D03*
D15*
X152400Y647700D03*
X0Y647700D03*
D16*
X177800Y800100D03*
X177800Y647700D03*
M02*
